<?xml version="1.0" encoding="utf-8"?>
<svg version="1.1" xmlns:xlink="http://www.w3.org/1999/xlink" width="12px" height="12px" viewBox="220 451  12 12" xmlns="http://www.w3.org/2000/svg">
  <path d="M 226 451  C 229.36 451  232 453.64  232 457  C 232 460.36  229.36 463  226 463  C 222.64 463  220 460.36  220 457  C 220 453.64  222.64 451  226 451  Z " fill-rule="nonzero" fill="#ffffff" stroke="none" />
  <path d="M 226 451.5  C 229.08 451.5  231.5 453.92  231.5 457  C 231.5 460.08  229.08 462.5  226 462.5  C 222.92 462.5  220.5 460.08  220.5 457  C 220.5 453.92  222.92 451.5  226 451.5  Z " stroke-width="1" stroke="#797979" fill="none" />
  <path d="M 226 460  C 224.32 460  223 458.68  223 457  C 223 455.32  224.32 454  226 454  C 227.68 454  229 455.32  229 457  C 229 458.68  227.68 460  226 460  " fill-rule="nonzero" fill="#797979" stroke="none" />
</svg>