<?xml version="1.0" encoding="utf-8"?>
<svg version="1.1" xmlns:xlink="http://www.w3.org/1999/xlink" width="491px" height="28px" viewBox="120 88  491 28" xmlns="http://www.w3.org/2000/svg">
  <path d="M 121 91  A 2 2 0 0 1 123 89 L 608 89  A 2 2 0 0 1 610 91 L 610 113  A 2 2 0 0 1 608 115 L 123 115  A 2 2 0 0 1 121 113 L 121 91  Z " fill-rule="nonzero" fill="#ffffff" stroke="none" />
  <path d="M 120.5 91  A 2.5 2.5 0 0 1 123 88.5 L 608 88.5  A 2.5 2.5 0 0 1 610.5 91 L 610.5 113  A 2.5 2.5 0 0 1 608 115.5 L 123 115.5  A 2.5 2.5 0 0 1 120.5 113 L 120.5 91  Z " stroke-width="1" stroke="#797979" fill="none" stroke-opacity="0.250980392156863" />
</svg>