<?xml version="1.0" encoding="utf-8"?>
<svg version="1.1" xmlns:xlink="http://www.w3.org/1999/xlink" width="180px" height="25px" viewBox="120 596  180 25" xmlns="http://www.w3.org/2000/svg">
  <path d="M 121 599  A 2 2 0 0 1 123 597 L 297 597  A 2 2 0 0 1 299 599 L 299 618  A 2 2 0 0 1 297 620 L 123 620  A 2 2 0 0 1 121 618 L 121 599  Z " fill-rule="nonzero" fill="#ffffff" stroke="none" />
  <path d="M 120.5 599  A 2.5 2.5 0 0 1 123 596.5 L 297 596.5  A 2.5 2.5 0 0 1 299.5 599 L 299.5 618  A 2.5 2.5 0 0 1 297 620.5 L 123 620.5  A 2.5 2.5 0 0 1 120.5 618 L 120.5 599  Z " stroke-width="1" stroke="#797979" fill="none" stroke-opacity="0.250980392156863" />
</svg>