<?xml version="1.0" encoding="utf-8"?>
<svg version="1.1" xmlns:xlink="http://www.w3.org/1999/xlink" width="110px" height="73px" xmlns="http://www.w3.org/2000/svg">
  <g transform="matrix(1 0 0 1 0 -24 )">
    <path d="M 0 24  L 110 24  L 110 97  L 0 97  L 0 24  " fill-rule="nonzero" fill="#cccccc" stroke="none" />
    <path d="M 5 29  L 105 29  L 105 92  L 5 92  L 5 29  " fill-rule="nonzero" fill="#ffffff" stroke="none" />
    <path d="M 62.675 45.9  C 59.609 45.9  57.2 43.491  57.2 40.425  C 57.2 37.359  59.609 34.95  62.675 34.95  C 65.741 34.95  68.15 37.359  68.15 40.425  C 68.15 43.491  65.741 45.9  62.675 45.9  " fill-rule="nonzero" fill="#cccccc" stroke="none" />
    <path d="M 7 90  L 7 57.55  L 31 42.8  L 64.6 66.5072727272727  L 83.8 51.65  L 103 66.5072727272727  L 103 90  L 7 90  " fill-rule="nonzero" fill="#169bd5" stroke="none" />
  </g>
</svg>