<?xml version="1.0" encoding="utf-8"?>
<svg version="1.1" xmlns:xlink="http://www.w3.org/1999/xlink" width="78px" height="86px" xmlns="http://www.w3.org/2000/svg">
  <g transform="matrix(1 0 0 1 -16 -11 )">
    <path d="M 16 11  L 94 11  L 94 97  L 16 97  L 16 11  " fill-rule="nonzero" fill="#cccccc" stroke="none" />
    <path d="M 21 16  L 89 16  L 89 92  L 21 92  L 21 16  " fill-rule="nonzero" fill="#ffffff" stroke="none" />
    <path d="M 62.41 35.6  C 59.134 35.6  56.56 33.026  56.56 29.75  C 56.56 26.474  59.134 23.9  62.41 23.9  C 65.686 23.9  68.26 26.474  68.26 29.75  C 68.26 33.026  65.686 35.6  62.41 35.6  " fill-rule="nonzero" fill="#cccccc" stroke="none" />
    <path d="M 23 90  L 23 50.4  L 39 32.4  L 61.4 46.8  L 74.2 43.2  L 87 46.8  L 87 90  L 23 90  " fill-rule="nonzero" fill="#169bd5" stroke="none" />
  </g>
</svg>