<?xml version="1.0" encoding="utf-8"?>
<svg version="1.1" xmlns:xlink="http://www.w3.org/1999/xlink" width="100px" height="100px" xmlns="http://www.w3.org/2000/svg">
  <defs>
    <mask fill="white" id="clip70">
      <path d="M 10.5 99.5  C 4.95 99.5  0.5 95.05  0.5 89.5  L 0.5 10.5  C 0.5 4.95  4.95 0.5  10.5 0.5  L 89.5 0.5  C 95.05 0.5  99.5 4.95  99.5 10.5  L 99.5 89.5  C 99.5 95.05  95.05 99.5  89.5 99.5  L 10.5 99.5  " fill-rule="evenodd" />
    </mask>
  </defs>
  <g>
    <path d="M 0 0  L 100 0  L 100 100  L 0 100  L 0 0  " fill-rule="nonzero" fill="#cccccc" stroke="none" mask="url(#clip70)" />
    <path d="M 7 7  L 93 7  L 93 93  L 7 93  L 7 7  " fill-rule="nonzero" fill="#ffffff" stroke="none" mask="url(#clip70)" />
    <path d="M 59.5 30  C 55.3 30  52 26.7  52 22.5  C 52 18.3  55.3 15  59.5 15  C 63.7 15  67 18.3  67 22.5  C 67 26.7  63.7 30  59.5 30  " fill-rule="nonzero" fill="#cccccc" stroke="none" mask="url(#clip70)" />
    <path d="M 10 91  L 10 46.45  L 30.25 26.2  L 58.6 42.4  L 74.8 38.35  L 91 42.4  L 91 91  L 10 91  " fill-rule="nonzero" fill="#169bd5" stroke="none" mask="url(#clip70)" />
    <path d="M 10 99.5  C 4.7275 99.5  0.5 95.2725  0.5 90  L 0.5 10  C 0.5 4.7275  4.7275 0.5  10 0.5  L 90 0.5  C 95.2725 0.5  99.5 4.7275  99.5 10  L 99.5 90  C 99.5 95.2725  95.2725 99.5  90 99.5  L 10 99.5  Z " stroke-width="1" stroke="#f2f2f2" fill="none" stroke-opacity="0.996078431372549" mask="url(#clip70)" />
  </g>
</svg>