<?xml version="1.0" encoding="utf-8"?>
<svg version="1.1" xmlns:xlink="http://www.w3.org/1999/xlink" width="115px" height="115px" xmlns="http://www.w3.org/2000/svg">
  <defs>
    <mask fill="white" id="clip54">
      <path d="M 10.5 114.5  C 4.95 114.5  0.5 110.05  0.5 104.5  L 0.5 10.5  C 0.5 4.95  4.95 0.5  10.5 0.5  L 104.5 0.5  C 110.05 0.5  114.5 4.95  114.5 10.5  L 114.5 104.5  C 114.5 110.05  110.05 114.5  104.5 114.5  L 10.5 114.5  " fill-rule="evenodd" />
    </mask>
  </defs>
  <g>
    <path d="M 0 0  L 115 0  L 115 115  L 0 115  L 0 0  " fill-rule="nonzero" fill="#cccccc" stroke="none" mask="url(#clip54)" />
    <path d="M 8 8  L 107 8  L 107 107  L 8 107  L 8 8  " fill-rule="nonzero" fill="#ffffff" stroke="none" mask="url(#clip54)" />
    <path d="M 68.425 34.5  C 63.595 34.5  59.8 30.705  59.8 25.875  C 59.8 21.045  63.595 17.25  68.425 17.25  C 73.255 17.25  77.05 21.045  77.05 25.875  C 77.05 30.705  73.255 34.5  68.425 34.5  " fill-rule="nonzero" fill="#cccccc" stroke="none" mask="url(#clip54)" />
    <path d="M 11 104  L 11 52.85  L 34.25 29.6  L 66.8 48.2  L 85.4 43.55  L 104 48.2  L 104 104  L 11 104  " fill-rule="nonzero" fill="#169bd5" stroke="none" mask="url(#clip54)" />
    <path d="M 10 114.5  C 4.7275 114.5  0.5 110.2725  0.5 105  L 0.5 10  C 0.5 4.7275  4.7275 0.5  10 0.5  L 105 0.5  C 110.2725 0.5  114.5 4.7275  114.5 10  L 114.5 105  C 114.5 110.2725  110.2725 114.5  105 114.5  L 10 114.5  Z " stroke-width="1" stroke="#ebebeb" fill="none" mask="url(#clip54)" />
  </g>
</svg>