<?xml version="1.0" encoding="utf-8"?>
<svg version="1.1" xmlns:xlink="http://www.w3.org/1999/xlink" width="9px" height="8px" xmlns="http://www.w3.org/2000/svg">
  <g transform="matrix(1 0 0 1 -3 -91 )">
    <path d="M 1.20342548076923 3.34375  C 1.54417067307692 3.63541666666667  1.96875 3.83159722222222  2.47716346153846 3.93229166666667  C 2.21033653846154 3.36979166666667  2.07692307692308 2.72569444444444  2.07692307692308 2  L 0.692307692307692 2  L 0.692307692307692 2.5  C 0.692307692307692 2.77083333333333  0.862680288461539 3.05208333333333  1.20342548076923 3.34375  Z M 7.79657451923077 3.34375  C 8.13731971153846 3.05208333333333  8.30769230769231 2.77083333333333  8.30769230769231 2.5  L 8.30769230769231 2  L 6.92307692307692 2  C 6.92307692307692 2.72569444444444  6.78966346153846 3.36979166666667  6.52283653846154 3.93229166666667  C 7.03125 3.83159722222222  7.45582932692308 3.63541666666667  7.79657451923077 3.34375  Z M 8.84855769230769 1.47916666666667  C 8.94951923076923 1.57638888888889  9 1.69444444444444  9 1.83333333333333  L 9 2.5  C 9 2.74652777777778  8.92518028846154 2.99479166666667  8.77554086538462 3.24479166666667  C 8.62590144230769 3.49479166666667  8.42397836538462 3.72048611111111  8.16977163461539 3.921875  C 7.91556490384615 4.12326388888889  7.60366586538462 4.29253472222222  7.23407451923077 4.4296875  C 6.86448317307692 4.56684027777778  6.47596153846154 4.64409722222222  6.06850961538462 4.66145833333333  C 5.91706730769231 4.84895833333333  5.74579326923077 5.01388888888889  5.5546875 5.15625  C 5.41766826923077 5.27430555555556  5.32301682692308 5.40017361111111  5.27073317307692 5.53385416666667  C 5.21844951923077 5.66753472222222  5.19230769230769 5.82291666666667  5.19230769230769 6  C 5.19230769230769 6.1875  5.24729567307692 6.34548611111111  5.35727163461539 6.47395833333333  C 5.46724759615385 6.60243055555556  5.64302884615385 6.66666666666667  5.88461538461539 6.66666666666667  C 6.15504807692308 6.66666666666667  6.39573317307692 6.74565972222222  6.60667067307692 6.90364583333333  C 6.81760817307692 7.06163194444444  6.92307692307692 7.26041666666667  6.92307692307692 7.5  L 6.92307692307692 7.83333333333333  C 6.92307692307692 7.88194444444444  6.90685096153846 7.921875  6.87439903846154 7.953125  C 6.84194711538462 7.984375  6.80048076923077 8  6.75 8  L 2.25 8  C 2.19951923076923 8  2.15805288461539 7.984375  2.12560096153846 7.953125  C 2.09314903846154 7.921875  2.07692307692308 7.88194444444444  2.07692307692308 7.83333333333333  L 2.07692307692308 7.5  C 2.07692307692308 7.26041666666667  2.18239182692308 7.06163194444444  2.39332932692308 6.90364583333333  C 2.60426682692308 6.74565972222222  2.84495192307692 6.66666666666667  3.11538461538462 6.66666666666667  C 3.35697115384615 6.66666666666667  3.53275240384615 6.60243055555556  3.64272836538462 6.47395833333333  C 3.75270432692308 6.34548611111111  3.80769230769231 6.1875  3.80769230769231 6  C 3.80769230769231 5.82291666666667  3.78155048076923 5.66753472222222  3.72926682692308 5.53385416666667  C 3.67698317307692 5.40017361111111  3.58233173076923 5.27430555555556  3.4453125 5.15625  C 3.25420673076923 5.01388888888889  3.08293269230769 4.84895833333333  2.93149038461538 4.66145833333333  C 2.52403846153846 4.64409722222222  2.13551682692308 4.56684027777778  1.76592548076923 4.4296875  C 1.39633413461538 4.29253472222222  1.08443509615385 4.12326388888889  0.830228365384615 3.921875  C 0.576021634615385 3.72048611111111  0.374098557692308 3.49479166666667  0.224459134615385 3.24479166666667  C 0.0748197115384615 2.99479166666667  0 2.74652777777778  0 2.5  L 0 1.83333333333333  C 0 1.69444444444444  0.0504807692307692 1.57638888888889  0.151442307692308 1.47916666666667  C 0.252403846153846 1.38194444444444  0.375 1.33333333333333  0.519230769230769 1.33333333333333  L 2.07692307692308 1.33333333333333  L 2.07692307692308 0.833333333333333  C 2.07692307692308 0.604166666666667  2.16165865384615 0.407986111111111  2.33112980769231 0.244791666666667  C 2.50060096153846 0.0815972222222214  2.70432692307692 0  2.94230769230769 0  L 6.05769230769231 0  C 6.29567307692308 0  6.49939903846154 0.0815972222222214  6.66887019230769 0.244791666666667  C 6.83834134615385 0.407986111111111  6.92307692307692 0.604166666666667  6.92307692307692 0.833333333333333  L 6.92307692307692 1.33333333333333  L 8.48076923076923 1.33333333333333  C 8.625 1.33333333333333  8.74759615384616 1.38194444444444  8.84855769230769 1.47916666666667  Z " fill-rule="nonzero" fill="#fafafa" stroke="none" transform="matrix(1 0 0 1 3 91 )" />
  </g>
</svg>