<?xml version="1.0" encoding="utf-8"?>
<svg version="1.1" xmlns:xlink="http://www.w3.org/1999/xlink" width="14px" height="18px" xmlns="http://www.w3.org/2000/svg">
  <g transform="matrix(1 0 0 1 -296 -2028 )">
    <path d="M 13.90703125 13.013671875  C 13.9690104166667 13.603515625  14 14.23046875  14 14.89453125  C 14 15.74609375  13.7721354166667 16.4765625  13.31640625 17.0859375  C 12.8606770833333 17.6953125  12.3119791666667 18  11.6703125 18  L 2.3296875 18  C 1.68802083333333 18  1.13932291666667 17.6953125  0.68359375 17.0859375  C 0.227864583333333 16.4765625  0 15.74609375  0 14.89453125  C 0 14.23046875  0.0309895833333334 13.603515625  0.0929687500000001 13.013671875  C 0.154947916666667 12.423828125  0.269791666666667 11.830078125  0.4375 11.232421875  C 0.605208333333334 10.634765625  0.818489583333333 10.123046875  1.07734375 9.697265625  C 1.33619791666667 9.271484375  1.67890625 8.923828125  2.10546875 8.654296875  C 2.53203125 8.384765625  3.02239583333333 8.25  3.5765625 8.25  C 4.53177083333333 9.25  5.67291666666667 9.75  7 9.75  C 8.32708333333334 9.75  9.46822916666667 9.25  10.4234375 8.25  C 10.9776041666667 8.25  11.46796875 8.384765625  11.89453125 8.654296875  C 12.32109375 8.923828125  12.6638020833333 9.271484375  12.92265625 9.697265625  C 13.1815104166667 10.123046875  13.3947916666667 10.634765625  13.5625 11.232421875  C 13.7302083333333 11.830078125  13.8450520833333 12.423828125  13.90703125 13.013671875  Z M 9.96953125 1.318359375  C 10.78984375 2.197265625  11.2 3.2578125  11.2 4.5  C 11.2 5.7421875  10.78984375 6.802734375  9.96953125 7.681640625  C 9.14921875 8.560546875  8.159375 9  7 9  C 5.840625 9  4.85078125 8.560546875  4.03046875 7.681640625  C 3.21015625 6.802734375  2.8 5.7421875  2.8 4.5  C 2.8 3.2578125  3.21015625 2.197265625  4.03046875 1.318359375  C 4.85078125 0.439453125  5.840625 0  7 0  C 8.159375 0  9.14921875 0.439453125  9.96953125 1.318359375  Z " fill-rule="nonzero" fill="#666666" stroke="none" transform="matrix(1 0 0 1 296 2028 )" />
  </g>
</svg>