<?xml version="1.0" encoding="utf-8"?>
<svg version="1.1" xmlns:xlink="http://www.w3.org/1999/xlink" width="14px" height="18px" xmlns="http://www.w3.org/2000/svg">
  <g transform="matrix(1 0 0 1 -233 -2028 )">
    <path d="M 13.9055397727273 16.8097098214286  C 13.9685132575758 16.8733258928571  14 16.9486607142857  14 17.0357142857143  L 14 17.6785714285714  C 14 17.765625  13.9685132575758 17.8409598214286  13.9055397727273 17.9045758928571  C 13.8425662878788 17.9681919642857  13.7679924242424 18  13.6818181818182 18  L 0.318181818181818 18  C 0.232007575757576 18  0.157433712121212 17.9681919642857  0.0944602272727273 17.9045758928571  C 0.0314867424242424 17.8409598214286  0 17.765625  0 17.6785714285714  L 0 17.0357142857143  C 0 16.9486607142857  0.0314867424242424 16.8733258928571  0.0944602272727273 16.8097098214286  C 0.157433712121212 16.74609375  0.232007575757576 16.7142857142857  0.318181818181818 16.7142857142857  L 13.6818181818182 16.7142857142857  C 13.7679924242424 16.7142857142857  13.8425662878788 16.74609375  13.9055397727273 16.8097098214286  Z M 11.1811079545455 4.58035714285714  C 11.3633996212121 5.15625  11.4545454545455 5.77232142857143  11.4545454545455 6.42857142857143  C 11.4545454545455 6.95089285714286  11.3733428030303 7.43303571428572  11.2109375 7.875  C 11.0485321969697 8.31696428571428  10.8364109848485 8.69363839285714  10.5745738636364 9.00502232142857  C 10.3127367424242 9.31640625  10.0227272727273 9.61104910714286  9.70454545454546 9.88895089285714  C 9.38636363636364 10.1668526785714  9.06818181818182 10.4263392857143  8.75 10.6674107142857  C 8.43181818181818 10.9084821428571  8.14180871212121 11.1495535714286  7.87997159090909 11.390625  C 7.61813446969697 11.6316964285714  7.40601325757576 11.9045758928571  7.24360795454546 12.2092633928571  C 7.08120265151515 12.5139508928571  7 12.8370535714286  7 13.1785714285714  C 7 13.8214285714286  7.22206439393939 14.5714285714286  7.66619318181818 15.4285714285714  L 7.62642045454546 15.4185267857143  L 7.63636363636364 15.4285714285714  C 7.03977272727273 15.1540178571429  6.5094696969697 14.8761160714286  6.04545454545455 14.5948660714286  C 5.58143939393939 14.3136160714286  5.12239583333333 13.9787946428571  4.66832386363636 13.5904017857143  C 4.21425189393939 13.2020089285714  3.83806818181818 12.7918526785714  3.53977272727273 12.3599330357143  C 3.24147727272727 11.9280133928571  3.00118371212121 11.4241071428571  2.81889204545455 10.8482142857143  C 2.63660037878788 10.2723214285714  2.54545454545455 9.65625  2.54545454545455 9  C 2.54545454545455 8.47767857142857  2.6266571969697 7.99553571428572  2.7890625 7.55357142857143  C 2.9514678030303 7.11160714285714  3.16358901515152 6.73493303571428  3.42542613636364 6.42354910714286  C 3.68726325757576 6.11216517857143  3.97727272727273 5.81752232142857  4.29545454545455 5.53962053571428  C 4.61363636363636 5.26171875  4.93181818181818 5.00223214285714  5.25 4.76116071428572  C 5.56818181818182 4.52008928571428  5.85819128787879 4.27901785714286  6.12002840909091 4.03794642857143  C 6.38186553030303 3.796875  6.59398674242424 3.52399553571429  6.75639204545455 3.21930803571429  C 6.91879734848485 2.91462053571428  7 2.59151785714286  7 2.25  C 7 1.62053571428571  6.78125 0.870535714285712  6.34375 0  L 6.37357954545455 0.0100446428571426  L 6.36363636363636 0  C 6.96022727272727 0.274553571428571  7.4905303030303 0.552455357142857  7.95454545454546 0.833705357142857  C 8.41856060606061 1.11495535714286  8.87760416666667 1.44977678571429  9.33167613636364 1.83816964285714  C 9.78574810606061 2.2265625  10.1619318181818 2.63671875  10.4602272727273 3.06863839285714  C 10.7585227272727 3.50055803571429  10.9988162878788 4.00446428571428  11.1811079545455 4.58035714285714  Z " fill-rule="nonzero" fill="#666666" stroke="none" transform="matrix(1 0 0 1 233 2028 )" />
  </g>
</svg>