<?xml version="1.0" encoding="utf-8"?>
<svg version="1.1" xmlns:xlink="http://www.w3.org/1999/xlink" width="14px" height="18px" xmlns="http://www.w3.org/2000/svg">
  <g transform="matrix(1 0 0 1 -108 -2028 )">
    <path d="M 10.5364583333333 0.683035714285715  L 13.3802083333333 3.81696428571429  C 13.5503472222222 4.00446428571428  13.6961805555556 4.25892857142857  13.8177083333333 4.58035714285714  C 13.9392361111111 4.90178571428572  14 5.19642857142857  14 5.46428571428572  L 14 17.0357142857143  C 14 17.3035714285714  13.9149305555556 17.53125  13.7447916666667 17.71875  C 13.5746527777778 17.90625  13.3680555555556 18  13.125 18  L 0.875 18  C 0.631944444444445 18  0.425347222222222 17.90625  0.255208333333333 17.71875  C 0.0850694444444444 17.53125  0 17.3035714285714  0 17.0357142857143  L 0 0.964285714285715  C 0 0.696428571428571  0.0850694444444444 0.468749999999999  0.255208333333333 0.28125  C 0.425347222222222 0.0937500000000007  0.631944444444445 0  0.875 0  L 9.04166666666667 0  C 9.28472222222222 0  9.55208333333333 0.0669642857142865  9.84375 0.200892857142857  C 10.1354166666667 0.334821428571428  10.3663194444444 0.495535714285714  10.5364583333333 0.683035714285715  Z M 9.70703125 1.58705357142857  C 9.63411458333333 1.50669642857143  9.50954861111111 1.43303571428571  9.33333333333333 1.36607142857143  L 9.33333333333333 5.14285714285714  L 12.7604166666667 5.14285714285714  C 12.6996527777778 4.94866071428571  12.6328125 4.81138392857143  12.5598958333333 4.73102678571428  L 9.70703125 1.58705357142857  Z M 1.16666666666667 16.7142857142857  L 12.8333333333333 16.7142857142857  L 12.8333333333333 6.42857142857143  L 9.04166666666667 6.42857142857143  C 8.79861111111111 6.42857142857143  8.59201388888889 6.33482142857143  8.421875 6.14732142857143  C 8.25173611111111 5.95982142857143  8.16666666666667 5.73214285714286  8.16666666666667 5.46428571428572  L 8.16666666666667 1.28571428571429  L 1.16666666666667 1.28571428571429  L 1.16666666666667 16.7142857142857  Z M 5.33203125 8.60825892857143  C 5.42925347222222 8.5078125  5.53559027777778 8.484375  5.65104166666667 8.53794642857143  C 5.77256944444444 8.59151785714286  5.83333333333333 8.69196428571429  5.83333333333333 8.83928571428572  L 5.83333333333333 14.3035714285714  C 5.83333333333333 14.4508928571429  5.77256944444444 14.5513392857143  5.65104166666667 14.6049107142857  C 5.60243055555556 14.6183035714286  5.56597222222222 14.625  5.54166666666667 14.625  C 5.46875 14.625  5.39887152777778 14.5948660714286  5.33203125 14.5345982142857  L 3.81901041666667 12.8571428571429  L 2.625 12.8571428571429  C 2.53993055555556 12.8571428571429  2.47005208333333 12.8270089285714  2.41536458333333 12.7667410714286  C 2.36067708333333 12.7064732142857  2.33333333333333 12.6294642857143  2.33333333333333 12.5357142857143  L 2.33333333333333 10.6071428571429  C 2.33333333333333 10.5133928571429  2.36067708333333 10.4363839285714  2.41536458333333 10.3761160714286  C 2.47005208333333 10.3158482142857  2.53993055555556 10.2857142857143  2.625 10.2857142857143  L 3.81901041666667 10.2857142857143  L 5.33203125 8.60825892857143  Z M 9.08723958333333 15.3080357142857  C 9.19661458333333 15.4084821428571  9.31814236111111 15.4587053571429  9.45182291666667 15.4587053571429  C 9.64019097222222 15.4587053571429  9.79210069444444 15.3783482142857  9.90755208333333 15.2176339285714  C 10.69140625 14.1529017857143  11.0833333333333 12.9375  11.0833333333333 11.5714285714286  C 11.0833333333333 10.2053571428571  10.69140625 8.98995535714286  9.90755208333333 7.92522321428572  C 9.81032986111111 7.78459821428572  9.6796875 7.70424107142857  9.515625 7.68415178571428  C 9.3515625 7.6640625  9.20876736111111 7.7109375  9.08723958333333 7.82477678571428  C 8.95963541666667 7.93861607142857  8.88823784722222 8.08426339285714  8.873046875 8.26171875  C 8.85785590277778 8.43917410714286  8.90190972222222 8.59821428571428  9.00520833333333 8.73883928571428  C 9.61284722222222 9.5625  9.91666666666667 10.5066964285714  9.91666666666667 11.5714285714286  C 9.91666666666667 12.6361607142857  9.61284722222222 13.5803571428571  9.00520833333333 14.4040178571429  C 8.90190972222222 14.5446428571429  8.85785590277778 14.7036830357143  8.873046875 14.8811383928571  C 8.88823784722222 15.05859375  8.95963541666667 15.2008928571429  9.08723958333333 15.3080357142857  Z M 7.12760416666667 13.8013392857143  C 7.24913194444445 13.9151785714286  7.3828125 13.9720982142857  7.52864583333333 13.9720982142857  C 7.69270833333333 13.9720982142857  7.83550347222222 13.9051339285714  7.95703125 13.7712053571429  C 8.48567708333333 13.1484375  8.75 12.4151785714286  8.75 11.5714285714286  C 8.75 10.7276785714286  8.48567708333333 9.99441964285714  7.95703125 9.37165178571428  C 7.84765625 9.24441964285714  7.7109375 9.17745535714286  7.546875 9.17075892857143  C 7.3828125 9.1640625  7.24305555555556 9.22098214285714  7.12760416666667 9.34151785714286  C 7.01215277777778 9.46205357142857  6.95138888888889 9.61104910714286  6.9453125 9.78850446428572  C 6.93923611111111 9.96595982142857  6.99392361111111 10.1216517857143  7.109375 10.2555803571429  C 7.42534722222222 10.6372767857143  7.58333333333333 11.0758928571429  7.58333333333333 11.5714285714286  C 7.58333333333333 12.0669642857143  7.42534722222222 12.5055803571429  7.109375 12.8872767857143  C 6.99392361111111 13.0212053571429  6.93923611111111 13.1768973214286  6.9453125 13.3543526785714  C 6.95138888888889 13.5318080357143  7.01215277777778 13.6808035714286  7.12760416666667 13.8013392857143  Z " fill-rule="nonzero" fill="#666666" stroke="none" transform="matrix(1 0 0 1 108 2028 )" />
  </g>
</svg>