<?xml version="1.0" encoding="utf-8"?>
<svg version="1.1" xmlns:xlink="http://www.w3.org/1999/xlink" width="14px" height="18px" xmlns="http://www.w3.org/2000/svg">
  <g transform="matrix(1 0 0 1 -171 -2028 )">
    <path d="M 10.5364583333333 0.683035714285715  L 13.3802083333333 3.81696428571429  C 13.5503472222222 4.00446428571428  13.6961805555556 4.25892857142857  13.8177083333333 4.58035714285714  C 13.9392361111111 4.90178571428572  14 5.19642857142857  14 5.46428571428572  L 14 17.0357142857143  C 14 17.3035714285714  13.9149305555556 17.53125  13.7447916666667 17.71875  C 13.5746527777778 17.90625  13.3680555555556 18  13.125 18  L 0.875 18  C 0.631944444444445 18  0.425347222222222 17.90625  0.255208333333333 17.71875  C 0.0850694444444444 17.53125  0 17.3035714285714  0 17.0357142857143  L 0 0.964285714285715  C 0 0.696428571428571  0.0850694444444444 0.468749999999999  0.255208333333333 0.28125  C 0.425347222222222 0.0937500000000007  0.631944444444445 0  0.875 0  L 9.04166666666667 0  C 9.28472222222222 0  9.55208333333333 0.0669642857142865  9.84375 0.200892857142857  C 10.1354166666667 0.334821428571428  10.3663194444444 0.495535714285714  10.5364583333333 0.683035714285715  Z M 9.70703125 1.58705357142857  C 9.63411458333333 1.50669642857143  9.50954861111111 1.43303571428571  9.33333333333333 1.36607142857143  L 9.33333333333333 5.14285714285714  L 12.7604166666667 5.14285714285714  C 12.6996527777778 4.94866071428571  12.6328125 4.81138392857143  12.5598958333333 4.73102678571428  L 9.70703125 1.58705357142857  Z M 1.16666666666667 16.7142857142857  L 12.8333333333333 16.7142857142857  L 12.8333333333333 6.42857142857143  L 9.04166666666667 6.42857142857143  C 8.79861111111111 6.42857142857143  8.59201388888889 6.33482142857143  8.421875 6.14732142857143  C 8.25173611111111 5.95982142857143  8.16666666666667 5.73214285714286  8.16666666666667 5.46428571428572  L 8.16666666666667 1.28571428571429  L 1.16666666666667 1.28571428571429  L 1.16666666666667 16.7142857142857  Z M 8.75 9  L 11.6666666666667 12.2142857142857  L 11.6666666666667 15.4285714285714  L 2.33333333333333 15.4285714285714  L 2.33333333333333 13.5  L 4.08333333333333 11.5714285714286  L 5.25 12.8571428571429  L 8.75 9  Z M 5.32291666666667 9.72321428571428  C 4.98263888888889 10.0982142857143  4.56944444444444 10.2857142857143  4.08333333333333 10.2857142857143  C 3.59722222222222 10.2857142857143  3.18402777777778 10.0982142857143  2.84375 9.72321428571428  C 2.50347222222222 9.34821428571429  2.33333333333333 8.89285714285714  2.33333333333333 8.35714285714286  C 2.33333333333333 7.82142857142857  2.50347222222222 7.36607142857143  2.84375 6.99107142857143  C 3.18402777777778 6.61607142857143  3.59722222222222 6.42857142857143  4.08333333333333 6.42857142857143  C 4.56944444444444 6.42857142857143  4.98263888888889 6.61607142857143  5.32291666666667 6.99107142857143  C 5.66319444444444 7.36607142857143  5.83333333333333 7.82142857142857  5.83333333333333 8.35714285714286  C 5.83333333333333 8.89285714285714  5.66319444444444 9.34821428571429  5.32291666666667 9.72321428571428  Z " fill-rule="nonzero" fill="#666666" stroke="none" transform="matrix(1 0 0 1 171 2028 )" />
  </g>
</svg>