<?xml version="1.0" encoding="utf-8"?>
<svg version="1.1" xmlns:xlink="http://www.w3.org/1999/xlink" width="8px" height="9px" xmlns="http://www.w3.org/2000/svg">
  <g transform="matrix(1 0 0 1 -9 -106 )">
    <path d="M 7.85416666666667 0.151442307692308  C 7.95138888888889 0.252403846153845  8 0.375  8 0.519230769230769  L 8 6.57692307692308  C 8 6.75721153846154  7.94097222222222 6.91766826923077  7.82291666666667 7.05829326923077  C 7.70486111111111 7.19891826923077  7.55555555555556 7.30799278846154  7.375 7.38551682692308  C 7.19444444444445 7.46304086538462  7.01475694444445 7.52073317307692  6.8359375 7.55859375  C 6.65711805555556 7.59645432692308  6.48958333333333 7.61538461538462  6.33333333333333 7.61538461538462  C 6.17708333333333 7.61538461538462  6.00954861111111 7.59645432692308  5.83072916666667 7.55859375  C 5.65190972222222 7.52073317307692  5.47222222222222 7.46304086538462  5.29166666666667 7.38551682692308  C 5.11111111111111 7.30799278846154  4.96180555555556 7.19891826923077  4.84375 7.05829326923077  C 4.72569444444444 6.91766826923077  4.66666666666667 6.75721153846154  4.66666666666667 6.57692307692308  C 4.66666666666667 6.39663461538462  4.72569444444444 6.23617788461539  4.84375 6.09555288461539  C 4.96180555555556 5.95492788461539  5.11111111111111 5.84585336538462  5.29166666666667 5.76832932692308  C 5.47222222222222 5.69080528846154  5.65190972222222 5.63311298076923  5.83072916666667 5.59525240384615  C 6.00954861111111 5.55739182692308  6.17708333333333 5.53846153846154  6.33333333333333 5.53846153846154  C 6.69791666666667 5.53846153846154  7.03125 5.60877403846154  7.33333333333333 5.74939903846154  L 7.33333333333333 2.84495192307692  L 3.33333333333333 4.12680288461539  L 3.33333333333333 7.96153846153846  C 3.33333333333333 8.14182692307692  3.27430555555556 8.30228365384615  3.15625 8.44290865384615  C 3.03819444444444 8.58353365384615  2.88888888888889 8.69260817307692  2.70833333333333 8.77013221153846  C 2.52777777777778 8.84765625  2.34809027777778 8.90534855769231  2.16927083333333 8.94320913461539  C 1.99045138888889 8.98106971153846  1.82291666666667 9  1.66666666666667 9  C 1.51041666666667 9  1.34288194444444 8.98106971153846  1.1640625 8.94320913461539  C 0.985243055555556 8.90534855769231  0.805555555555556 8.84765625  0.625 8.77013221153846  C 0.444444444444444 8.69260817307692  0.295138888888889 8.58353365384615  0.177083333333333 8.44290865384615  C 0.0590277777777778 8.30228365384615  0 8.14182692307692  0 7.96153846153846  C 0 7.78125  0.0590277777777778 7.62079326923077  0.177083333333333 7.48016826923077  C 0.295138888888889 7.33954326923077  0.444444444444444 7.23046875  0.625 7.15294471153846  C 0.805555555555556 7.07542067307692  0.985243055555556 7.01772836538462  1.1640625 6.97986778846154  C 1.34288194444444 6.94200721153846  1.51041666666667 6.92307692307692  1.66666666666667 6.92307692307692  C 2.03125 6.92307692307692  2.36458333333333 6.99338942307692  2.66666666666667 7.13401442307692  L 2.66666666666667 1.90384615384615  C 2.66666666666667 1.79206730769231  2.69965277777778 1.69020432692308  2.765625 1.59825721153846  C 2.83159722222222 1.50631009615385  2.91666666666667 1.44230769230769  3.02083333333333 1.40625  L 7.35416666666667 0.0216346153846153  C 7.39583333333333 0.00721153846153844  7.44444444444445 0  7.5 0  C 7.63888888888889 0  7.75694444444445 0.0504807692307691  7.85416666666667 0.151442307692308  Z " fill-rule="nonzero" fill="#ffffff" stroke="none" transform="matrix(1 0 0 1 9 106 )" />
  </g>
</svg>