<?xml version="1.0" encoding="utf-8"?>
<svg version="1.1" xmlns:xlink="http://www.w3.org/1999/xlink" width="10px" height="8px" xmlns="http://www.w3.org/2000/svg">
  <g transform="matrix(1 0 0 1 -25 -90 )">
    <path d="M 5.20833333333333 4.63020833333333  L 7.69965277777778 3.6875  L 7.77777777777778 5.33333333333333  C 7.78935185185185 5.57291666666667  7.67071759259259 5.79513888888889  7.421875 6  C 7.17303240740741 6.20486111111111  6.83304398148148 6.3671875  6.40190972222222 6.48697916666667  C 5.97077546296296 6.60677083333333  5.50347222222222 6.66666666666667  5 6.66666666666667  C 4.49652777777778 6.66666666666667  4.02922453703704 6.60677083333333  3.59809027777778 6.48697916666667  C 3.16695601851852 6.3671875  2.82696759259259 6.20486111111111  2.578125 6  C 2.32928240740741 5.79513888888889  2.21064814814815 5.57291666666667  2.22222222222222 5.33333333333333  L 2.30034722222222 3.6875  L 4.79166666666667 4.63020833333333  C 4.85532407407407 4.65451388888889  4.92476851851852 4.66666666666667  5 4.66666666666667  C 5.07523148148148 4.66666666666667  5.14467592592593 4.65451388888889  5.20833333333333 4.63020833333333  Z M 9.90451388888889 1.83854166666667  C 9.9681712962963 1.86631944444444  10 1.92013888888889  10 2  C 10 2.07986111111111  9.9681712962963 2.13368055555555  9.90451388888889 2.16145833333333  L 5.04340277777778 3.99479166666667  C 5.0318287037037 3.99826388888889  5.01736111111111 4  5 4  C 4.98263888888889 4  4.9681712962963 3.99826388888889  4.95659722222222 3.99479166666667  L 2.12673611111111 2.921875  C 2.00231481481481 3.03993055555555  1.89959490740741 3.23350694444444  1.81857638888889 3.50260416666667  C 1.73755787037037 3.77170138888889  1.68836805555556 4.08159722222222  1.67100694444444 4.43229166666667  C 1.85329861111111 4.55729166666667  1.94444444444444 4.74652777777778  1.94444444444444 5  C 1.94444444444444 5.23958333333333  1.86053240740741 5.42534722222222  1.69270833333333 5.55729166666667  L 1.94444444444444 7.8125  C 1.95023148148148 7.86111111111111  1.93865740740741 7.90451388888889  1.90972222222222 7.94270833333333  C 1.88368055555556 7.98090277777778  1.84895833333333 8  1.80555555555556 8  L 0.972222222222222 8  C 0.928819444444444 8  0.894097222222222 7.98090277777778  0.868055555555556 7.94270833333333  C 0.83912037037037 7.90451388888889  0.827546296296296 7.86111111111111  0.833333333333333 7.8125  L 1.08506944444444 5.55729166666667  C 0.91724537037037 5.42534722222222  0.833333333333333 5.23958333333333  0.833333333333333 5  C 0.833333333333333 4.74652777777778  0.927372685185185 4.55381944444444  1.11545138888889 4.421875  C 1.14728009259259 3.703125  1.2890625 3.13020833333333  1.54079861111111 2.703125  L 0.0954861111111111 2.16145833333333  C 0.0318287037037037 2.13368055555555  0 2.07986111111111  0 2  C 0 1.92013888888889  0.0318287037037037 1.86631944444444  0.0954861111111111 1.83854166666667  L 4.95659722222222 0.00520833333333304  C 4.9681712962963 0.00173611111111072  4.98263888888889 0  5 0  C 5.01736111111111 0  5.0318287037037 0.00173611111111072  5.04340277777778 0.00520833333333304  L 9.90451388888889 1.83854166666667  Z " fill-rule="nonzero" fill="#ffffff" stroke="none" transform="matrix(1 0 0 1 25 90 )" />
  </g>
</svg>