<?xml version="1.0" encoding="utf-8"?>
<svg version="1.1" xmlns:xlink="http://www.w3.org/1999/xlink" width="31px" height="30px" xmlns="http://www.w3.org/2000/svg">
  <defs>
    <linearGradient gradientUnits="userSpaceOnUse" x1="0" y1="0" x2="8.07626392459049" y2="7.21508140531398" id="LinearGradient61">
      <stop id="Stop62" stop-color="#ffdd9b" offset="0" />
      <stop id="Stop63" stop-color="#ffb534" offset="0.85" />
      <stop id="Stop64" stop-color="#f8c011" offset="1" />
    </linearGradient>
    <filter x="90px" y="7px" width="31px" height="30px" filterUnits="userSpaceOnUse" id="filter65">
      <feOffset dx="0" dy="0" in="SourceAlpha" result="shadowOffsetInner" />
      <feGaussianBlur stdDeviation="5" in="shadowOffsetInner" result="shadowGaussian" />
      <feComposite in2="shadowGaussian" operator="atop" in="SourceAlpha" result="shadowComposite" />
      <feColorMatrix type="matrix" values="0 0 0 0 0.909803921568627  0 0 0 0 0.380392156862745  0 0 0 0 0.0941176470588235  0 0 0 0.313725490196078 0  " in="shadowComposite" />
    </filter>
    <g id="widget66">
      <path d="M 1.47085336538462 4.1796875  C 1.88731971153846 4.54427083333333  2.40625 4.78949652777778  3.02764423076923 4.91536458333333  C 2.70152243589744 4.21223958333333  2.53846153846154 3.40711805555555  2.53846153846154 2.5  L 0.846153846153846 2.5  L 0.846153846153846 3.125  C 0.846153846153846 3.46354166666667  1.05438701923077 3.81510416666667  1.47085336538462 4.1796875  Z M 9.52914663461539 4.1796875  C 9.94561298076923 3.81510416666667  10.1538461538462 3.46354166666667  10.1538461538462 3.125  L 10.1538461538462 2.5  L 8.46153846153846 2.5  C 8.46153846153846 3.40711805555555  8.29847756410256 4.21223958333333  7.97235576923077 4.91536458333333  C 8.59375 4.78949652777778  9.11268028846154 4.54427083333333  9.52914663461539 4.1796875  Z M 10.8149038461538 1.84895833333333  C 10.9383012820513 1.97048611111111  11 2.11805555555555  11 2.29166666666667  L 11 3.125  C 11 3.43315972222222  10.9085536858974 3.74348958333333  10.7256610576923 4.05598958333333  C 10.5427684294872 4.36848958333333  10.2959735576923 4.65060763888889  9.98527644230769 4.90234375  C 9.67457932692308 5.15407986111111  9.29336939102564 5.36566840277778  8.84164663461539 5.537109375  C 8.38992387820513 5.70855034722222  7.9150641025641 5.80512152777778  7.41706730769231 5.82682291666667  C 7.23197115384615 6.06119791666667  7.02263621794872 6.26736111111111  6.7890625 6.4453125  C 6.62159455128205 6.59288194444444  6.50590945512821 6.75021701388889  6.44200721153846 6.91731770833333  C 6.37810496794872 7.08441840277778  6.34615384615385 7.27864583333333  6.34615384615385 7.5  C 6.34615384615385 7.734375  6.41336137820513 7.93185763888889  6.54777644230769 8.09244791666667  C 6.68219150641026 8.25303819444444  6.89703525641026 8.33333333333333  7.19230769230769 8.33333333333333  C 7.52283653846154 8.33333333333333  7.81700721153846 8.43207465277778  8.07481971153846 8.62955729166667  C 8.33263221153846 8.82703993055556  8.46153846153846 9.07552083333333  8.46153846153846 9.375  L 8.46153846153846 9.79166666666667  C 8.46153846153846 9.85243055555556  8.44170673076923 9.90234375  8.40204326923077 9.94140625  C 8.36237980769231 9.98046875  8.31169871794872 10  8.25 10  L 2.75 10  C 2.68830128205128 10  2.63762019230769 9.98046875  2.59795673076923 9.94140625  C 2.55829326923077 9.90234375  2.53846153846154 9.85243055555556  2.53846153846154 9.79166666666667  L 2.53846153846154 9.375  C 2.53846153846154 9.07552083333333  2.66736778846154 8.82703993055556  2.92518028846154 8.62955729166667  C 3.18299278846154 8.43207465277778  3.47716346153846 8.33333333333333  3.80769230769231 8.33333333333333  C 4.10296474358974 8.33333333333333  4.31780849358974 8.25303819444444  4.45222355769231 8.09244791666667  C 4.58663862179487 7.93185763888889  4.65384615384615 7.734375  4.65384615384615 7.5  C 4.65384615384615 7.27864583333333  4.62189503205128 7.08441840277778  4.55799278846154 6.91731770833333  C 4.49409054487179 6.75021701388889  4.37840544871795 6.59288194444444  4.2109375 6.4453125  C 3.97736378205128 6.26736111111111  3.76802884615385 6.06119791666667  3.58293269230769 5.82682291666667  C 3.0849358974359 5.80512152777778  2.61007612179487 5.70855034722222  2.15835336538462 5.537109375  C 1.70663060897436 5.36566840277778  1.32542067307692 5.15407986111111  1.01472355769231 4.90234375  C 0.704026442307692 4.65060763888889  0.457231570512821 4.36848958333333  0.274338942307692 4.05598958333333  C 0.0914463141025641 3.74348958333333  0 3.43315972222222  0 3.125  L 0 2.29166666666667  C 0 2.11805555555555  0.0616987179487179 1.97048611111111  0.185096153846154 1.84895833333333  C 0.30849358974359 1.72743055555555  0.458333333333333 1.66666666666667  0.634615384615385 1.66666666666667  L 2.53846153846154 1.66666666666667  L 2.53846153846154 1.04166666666667  C 2.53846153846154 0.755208333333334  2.64202724358974 0.509982638888888  2.84915865384615 0.305989583333334  C 3.05629006410256 0.101996527777777  3.30528846153846 0  3.59615384615385 0  L 7.40384615384615 0  C 7.69471153846154 0  7.94370993589744 0.101996527777777  8.15084134615384 0.305989583333334  C 8.35797275641026 0.509982638888888  8.46153846153846 0.755208333333334  8.46153846153846 1.04166666666667  L 8.46153846153846 1.66666666666667  L 10.3653846153846 1.66666666666667  C 10.5416666666667 1.66666666666667  10.6915064102564 1.72743055555555  10.8149038461538 1.84895833333333  Z " fill-rule="nonzero" fill="url(#LinearGradient61)" stroke="none" transform="matrix(1 0 0 1 100 17 )" />
    </g>
  </defs>
  <g transform="matrix(1 0 0 1 -90 -7 )">
    <use xlink:href="#widget66" filter="url(#filter65)" />
    <use xlink:href="#widget66" />
  </g>
</svg>