<?xml version="1.0" encoding="utf-8"?>
<svg version="1.1" xmlns:xlink="http://www.w3.org/1999/xlink" width="14px" height="10px" xmlns="http://www.w3.org/2000/svg">
  <g transform="matrix(1 0 0 1 -320 -16 )">
    <path d="M 13.8515625 8.31676136363637  C 13.9505208333333 8.4067234848485  14 8.51325757575756  14 8.63636363636363  L 14 9.54545454545456  C 14 9.66856060606062  13.9505208333333 9.77509469696969  13.8515625 9.86505681818181  C 13.7526041666667 9.95501893939394  13.6354166666667 10  13.5 10  L 0.5 10  C 0.364583333333334 10  0.247395833333334 9.95501893939394  0.1484375 9.86505681818181  C 0.0494791666666661 9.77509469696969  0 9.66856060606062  0 9.54545454545456  L 0 8.63636363636363  C 0 8.51325757575756  0.0494791666666661 8.4067234848485  0.1484375 8.31676136363637  C 0.247395833333334 8.22679924242425  0.364583333333334 8.18181818181819  0.5 8  L 13.5 8  C 13.6354166666667 8.18181818181819  13.7526041666667 8.22679924242425  13.8515625 8.31676136363637  Z M 13.8515625 5.58948863636363  C 13.9505208333333 5.67945075757575  14 5.78598484848487  14 5.90909090909093  L 14 6.81818181818181  C 14 6.94128787878788  13.9505208333333 7.047821969697  13.8515625 7.13778409090907  C 13.7526041666667 7.22774621212119  13.6354166666667 7.27272727272725  13.5 7.27272727272725  L 3.5 7.27272727272725  C 3.36458333333333 7.27272727272725  3.24739583333333 7.22774621212119  3.1484375 7.13778409090907  C 3.04947916666667 7.047821969697  3 6.94128787878788  3 6.81818181818181  L 3 5.90909090909093  C 3 5.78598484848487  3.04947916666667 5.67945075757575  3.1484375 5.58948863636363  C 3.24739583333333 5.4995265151515  3.36458333333333 5.45454545454544  3.5 5.45454545454544  L 13.5 5.45454545454544  C 13.6354166666667 5.45454545454544  13.7526041666667 5.4995265151515  13.8515625 5.58948863636363  Z M 13.8515625 2.86221590909093  C 13.9505208333333 2.952178030303  14 3.05871212121212  14 3.18181818181819  L 14 4.09090909090907  C 14 4.21401515151513  13.9505208333333 4.32054924242425  13.8515625 4.41051136363637  C 13.7526041666667 4.5004734848485  13.6354166666667 4.54545454545456  13.5 4.54545454545456  L 1.5 4.54545454545456  C 1.36458333333333 4.54545454545456  1.24739583333333 4.5004734848485  1.1484375 4.41051136363637  C 1.04947916666667 4.32054924242425  1 4.21401515151513  1 4.09090909090907  L 1 3.18181818181819  C 1 3.05871212121212  1.04947916666667 2.952178030303  1.1484375 2.86221590909093  C 1.24739583333333 2.77225378787881  1.36458333333333 2.72727272727275  1.5 2.72727272727275  L 13.5 2.72727272727275  C 13.6354166666667 2.72727272727275  13.7526041666667 2.77225378787881  13.8515625 2.86221590909093  Z M 13.8515625 0.134943181818187  C 13.9505208333333 0.224905303030312  14 0.331439393939377  14 0.454545454545439  L 14 1.36363636363637  C 14 1.48674242424244  13.9505208333333 1.5932765151515  13.8515625 1.68323863636363  C 13.7526041666667 1.77320075757575  13.6354166666667 1.81818181818181  13.5 1.81818181818181  L 4.5 1.81818181818181  C 4.36458333333334 1.81818181818181  4.24739583333333 1.77320075757575  4.1484375 1.68323863636363  C 4.04947916666667 1.5932765151515  4 1.48674242424244  4 1.36363636363637  L 4 0.454545454545439  C 4 0.331439393939377  4.04947916666667 0.224905303030312  4.1484375 0.134943181818187  C 4.24739583333333 0.0449810606060623  4.36458333333334 0  4.5 0  L 6 0  L 13.5 0  C 13.6354166666667 0  13.7526041666667 0.0449810606060623  13.8515625 0.134943181818187  Z " fill-rule="nonzero" fill="#fff9f9" stroke="none" transform="matrix(1 0 0 1 320 16 )" />
  </g>
</svg>