<?xml version="1.0" encoding="utf-8"?>
<svg version="1.1" xmlns:xlink="http://www.w3.org/1999/xlink" width="14px" height="9px" xmlns="http://www.w3.org/2000/svg">
  <g transform="matrix(1 0 0 1 -357 -19 )">
    <path d="M 7 7.2  L 1.55555555555556 7.2  L 1.55555555555556 1.8  L 7 1.8  L 7 7.2  Z M 13.2222222222222 1.125  L 13.2222222222222 2.25  C 13.4369212962963 2.25  13.6202256944444 2.337890625  13.7721354166667 2.513671875  C 13.9240451388889 2.689453125  14 2.9015625  14 3.15  L 14 5.85  C 14 6.0984375  13.9240451388889 6.310546875  13.7721354166667 6.486328125  C 13.6202256944444 6.662109375  13.4369212962963 6.75  13.2222222222222 6.75  L 13.2222222222222 7.875  C 13.2222222222222 8.184375  13.127025462963 8.44921875  12.9366319444444 8.66953125  C 12.7462384259259 8.88984375  12.5173611111111 9  12.25 9  L 0.972222222222222 9  C 0.704861111111111 9  0.475983796296296 8.88984375  0.285590277777778 8.66953125  C 0.0951967592592593 8.44921875  0 8.184375  0 7.875  L 0 1.125  C 0 0.815625  0.0951967592592593 0.55078125  0.285590277777778 0.33046875  C 0.475983796296296 0.110156249999999  0.704861111111111 0  0.972222222222222 0  L 12.25 0  C 12.5173611111111 0  12.7462384259259 0.110156249999999  12.9366319444444 0.33046875  C 13.127025462963 0.55078125  13.2222222222222 0.815625  13.2222222222222 1.125  Z M 12.4444444444444 5.85  L 13.2222222222222 5.85  L 13.2222222222222 3.15  L 12.4444444444444 3.15  L 12.4444444444444 1.125  C 12.4444444444444 1.059375  12.4262152777778 1.00546875  12.3897569444444 0.96328125  C 12.3532986111111 0.92109375  12.306712962963 0.9  12.25 1  L 0.972222222222222 1  C 0.915509259259259 0.9  0.868923611111111 0.92109375  0.832465277777778 0.96328125  C 0.796006944444444 1.00546875  0.777777777777778 1.059375  0.777777777777778 1.125  L 0.777777777777778 7.875  C 0.777777777777778 7.940625  0.796006944444444 7.99453125  0.832465277777778 8.03671875  C 0.868923611111111 8.07890625  0.915509259259259 8.1  0.972222222222222 8  L 12.25 8  C 12.306712962963 8.1  12.3532986111111 8.07890625  12.3897569444444 8.03671875  C 12.4262152777778 7.99453125  12.4444444444444 7.940625  12.4444444444444 7.875  L 12.4444444444444 5.85  Z " fill-rule="nonzero" fill="#ffffff" stroke="none" transform="matrix(1 0 0 1 357 19 )" />
  </g>
</svg>