<?xml version="1.0" encoding="utf-8"?>
<svg version="1.1" xmlns:xlink="http://www.w3.org/1999/xlink" width="7px" height="8px" xmlns="http://www.w3.org/2000/svg">
  <g transform="matrix(1 0 0 1 -4 -91 )">
    <path d="M 6.87239583333333 0.134615384615385  C 6.95746527777778 0.224358974358974  7 0.333333333333333  7 0.461538461538462  L 7 5.84615384615385  C 7 6.00641025641026  6.94835069444444 6.14903846153846  6.84505208333333 6.27403846153846  C 6.74175347222222 6.39903846153846  6.61111111111111 6.49599358974359  6.453125 6.56490384615385  C 6.29513888888889 6.6338141025641  6.13791232638889 6.68509615384615  5.9814453125 6.71875  C 5.82497829861111 6.75240384615385  5.67838541666667 6.76923076923077  5.54166666666667 6.76923076923077  C 5.40494791666667 6.76923076923077  5.25835503472222 6.75240384615385  5.10188802083333 6.71875  C 4.94542100694444 6.68509615384615  4.78819444444444 6.6338141025641  4.63020833333333 6.56490384615385  C 4.47222222222222 6.49599358974359  4.34157986111111 6.39903846153846  4.23828125 6.27403846153846  C 4.13498263888889 6.14903846153846  4.08333333333333 6.00641025641026  4.08333333333333 5.84615384615385  C 4.08333333333333 5.68589743589744  4.13498263888889 5.54326923076923  4.23828125 5.41826923076923  C 4.34157986111111 5.29326923076923  4.47222222222222 5.1963141025641  4.63020833333333 5.12740384615385  C 4.78819444444444 5.05849358974359  4.94542100694444 5.00721153846154  5.10188802083333 4.97355769230769  C 5.25835503472222 4.93990384615385  5.40494791666667 4.92307692307692  5.54166666666667 4.92307692307692  C 5.86067708333333 4.92307692307692  6.15234375 4.98557692307692  6.41666666666667 5.11057692307692  L 6.41666666666667 2.52884615384615  L 2.91666666666667 3.66826923076923  L 2.91666666666667 7.07692307692308  C 2.91666666666667 7.23717948717949  2.86501736111111 7.37980769230769  2.76171875 7.50480769230769  C 2.65842013888889 7.62980769230769  2.52777777777778 7.72676282051282  2.36979166666667 7.79567307692308  C 2.21180555555556 7.86458333333333  2.05457899305556 7.91586538461539  1.89811197916667 7.94951923076923  C 1.74164496527778 7.98317307692308  1.59505208333333 8  1.45833333333333 8  C 1.32161458333333 8  1.17502170138889 7.98317307692308  1.0185546875 7.94951923076923  C 0.862087673611111 7.91586538461539  0.704861111111111 7.86458333333333  0.546875 7.79567307692308  C 0.388888888888889 7.72676282051282  0.258246527777778 7.62980769230769  0.154947916666667 7.50480769230769  C 0.0516493055555555 7.37980769230769  0 7.23717948717949  0 7.07692307692308  C 0 6.91666666666667  0.0516493055555555 6.77403846153846  0.154947916666667 6.64903846153846  C 0.258246527777778 6.52403846153846  0.388888888888889 6.42708333333333  0.546875 6.35817307692308  C 0.704861111111111 6.28926282051282  0.862087673611111 6.23798076923077  1.0185546875 6.20432692307692  C 1.17502170138889 6.17067307692308  1.32161458333333 6.15384615384615  1.45833333333333 6.15384615384615  C 1.77734375 6.15384615384615  2.06901041666667 6.21634615384615  2.33333333333333 6.34134615384615  L 2.33333333333333 1.69230769230769  C 2.33333333333333 1.59294871794872  2.36219618055556 1.50240384615385  2.419921875 1.42067307692308  C 2.47764756944445 1.33894230769231  2.55208333333333 1.28205128205128  2.64322916666667 1.25  L 6.43489583333333 0.0192307692307692  C 6.47135416666667 0.00641025641025639  6.51388888888889 0  6.5625 0  C 6.68402777777778 0  6.78732638888889 0.0448717948717947  6.87239583333333 0.134615384615385  Z " fill-rule="nonzero" fill="#ffffff" stroke="none" transform="matrix(1 0 0 1 4 91 )" />
  </g>
</svg>