<?xml version="1.0" encoding="utf-8"?>
<svg version="1.1" xmlns:xlink="http://www.w3.org/1999/xlink" width="8px" height="8px" xmlns="http://www.w3.org/2000/svg">
  <g transform="matrix(1 0 0 1 -3 -91 )">
    <path d="M 5.52604166666667 3.72916666666667  C 5.61979166666667 3.79513888888889  5.66666666666667 3.88541666666667  5.66666666666667 4  C 5.66666666666667 4.11458333333333  5.61979166666667 4.20486111111111  5.52604166666667 4.27083333333333  L 3.19270833333333 5.9375  C 3.08506944444444 6.01736111111111  2.97048611111111 6.02604166666667  2.84895833333333 5.96354166666667  C 2.72743055555556 5.90451388888889  2.66666666666667 5.80555555555556  2.66666666666667 5.66666666666667  L 2.66666666666667 2.33333333333333  C 2.66666666666667 2.19444444444444  2.72743055555556 2.09548611111111  2.84895833333333 2.03645833333333  C 2.97048611111111 1.97395833333333  3.08506944444444 1.98263888888889  3.19270833333333 2.0625  L 5.52604166666667 3.72916666666667  Z M 6.61979166666667 6.61979166666667  C 6.65104166666667 6.58854166666667  6.66666666666667 6.54861111111111  6.66666666666667 6.5  L 6.66666666666667 1.5  C 6.66666666666667 1.45138888888889  6.65104166666667 1.41145833333333  6.61979166666667 1.38020833333333  C 6.58854166666667 1.34895833333333  6.54861111111111 1.33333333333333  6.5 1.33333333333333  L 1.5 1.33333333333333  C 1.45138888888889 1.33333333333333  1.41145833333333 1.34895833333333  1.38020833333333 1.38020833333333  C 1.34895833333333 1.41145833333333  1.33333333333333 1.45138888888889  1.33333333333333 1.5  L 1.33333333333333 6.5  C 1.33333333333333 6.54861111111111  1.34895833333333 6.58854166666667  1.38020833333333 6.61979166666667  C 1.41145833333333 6.65104166666667  1.45138888888889 6.66666666666667  1.5 6.66666666666667  L 6.5 6.66666666666667  C 6.54861111111111 6.66666666666667  6.58854166666667 6.65104166666667  6.61979166666667 6.61979166666667  Z M 7.55989583333333 0.440104166666667  C 7.85329861111111 0.733506944444444  8 1.08680555555555  8 1.5  L 8 6.5  C 8 6.91319444444444  7.85329861111111 7.26649305555556  7.55989583333333 7.55989583333333  C 7.26649305555556 7.85329861111111  6.91319444444445 8  6.5 8  L 1.5 8  C 1.08680555555556 8  0.733506944444445 7.85329861111111  0.440104166666667 7.55989583333333  C 0.146701388888889 7.26649305555556  0 6.91319444444444  0 6.5  L 0 1.5  C 0 1.08680555555555  0.146701388888889 0.733506944444444  0.440104166666667 0.440104166666667  C 0.733506944444445 0.146701388888888  1.08680555555556 0  1.5 0  L 6.5 0  C 6.91319444444445 0  7.26649305555556 0.146701388888888  7.55989583333333 0.440104166666667  Z " fill-rule="nonzero" fill="#ffffff" stroke="none" transform="matrix(1 0 0 1 3 91 )" />
  </g>
</svg>