<?xml version="1.0" encoding="utf-8"?>
<svg version="1.1" xmlns:xlink="http://www.w3.org/1999/xlink" width="12px" height="12px" viewBox="221 495  12 12" xmlns="http://www.w3.org/2000/svg">
  <path d="M 227 495  C 230.36 495  233 497.64  233 501  C 233 504.36  230.36 507  227 507  C 223.64 507  221 504.36  221 501  C 221 497.64  223.64 495  227 495  Z " fill-rule="nonzero" fill="#f0f0f0" stroke="none" />
  <path d="M 227 495.5  C 230.08 495.5  232.5 497.92  232.5 501  C 232.5 504.08  230.08 506.5  227 506.5  C 223.92 506.5  221.5 504.08  221.5 501  C 221.5 497.92  223.92 495.5  227 495.5  Z " stroke-width="1" stroke="#797979" fill="none" />
  <path d="M 227 504  C 225.32 504  224 502.68  224 501  C 224 499.32  225.32 498  227 498  C 228.68 498  230 499.32  230 501  C 230 502.68  228.68 504  227 504  " fill-rule="nonzero" fill="#797979" stroke="none" />
</svg>