<?xml version="1.0" encoding="utf-8"?>
<svg version="1.1" xmlns:xlink="http://www.w3.org/1999/xlink" width="20px" height="20px" xmlns="http://www.w3.org/2000/svg">
  <g transform="matrix(1 0 0 1 -551 -15 )">
    <path d="M 4.98046875 1.34114583333333  C 6.51258680555556 0.447048611111109  8.18576388888889 0  10 0  C 11.8142361111111 0  13.4874131944444 0.447048611111109  15.01953125 1.34114583333333  C 16.5516493055556 2.23524305555555  17.7647569444444 3.44835069444444  18.6588541666667 4.98046875  C 19.5529513888889 6.51258680555555  20 8.18576388888889  20 10  C 20 11.8142361111111  19.5529513888889 13.4874131944444  18.6588541666667 15.01953125  C 17.7647569444444 16.5516493055556  16.5516493055556 17.7647569444444  15.01953125 18.6588541666667  C 13.4874131944444 19.5529513888889  11.8142361111111 20  10 20  C 8.18576388888889 20  6.51258680555556 19.5529513888889  4.98046875 18.6588541666667  C 3.44835069444444 17.7647569444444  2.23524305555556 16.5516493055556  1.34114583333333 15.01953125  C 0.447048611111111 13.4874131944444  0 11.8142361111111  0 10  C 0 8.18576388888889  0.447048611111111 6.51258680555555  1.34114583333333 4.98046875  C 2.23524305555556 3.44835069444444  3.44835069444444 2.23524305555555  4.98046875 1.34114583333333  Z M 6.4453125 16.1328125  C 7.53038194444445 16.7664930555556  8.71527777777778 17.0833333333333  10 17.0833333333333  C 11.2847222222222 17.0833333333333  12.4696180555556 16.7664930555556  13.5546875 16.1328125  C 14.6397569444444 15.4991319444444  15.4991319444444 14.6397569444444  16.1328125 13.5546875  C 16.7664930555556 12.4696180555556  17.0833333333333 11.2847222222222  17.0833333333333 10  C 17.0833333333333 8.71527777777778  16.7664930555556 7.53038194444444  16.1328125 6.4453125  C 15.4991319444444 5.36024305555555  14.6397569444444 4.50086805555555  13.5546875 3.8671875  C 12.4696180555556 3.23350694444444  11.2847222222222 2.91666666666667  10 2.91666666666667  C 8.71527777777778 2.91666666666667  7.53038194444445 3.23350694444444  6.4453125 3.8671875  C 5.36024305555556 4.50086805555555  4.50086805555556 5.36024305555555  3.8671875 6.4453125  C 3.23350694444444 7.53038194444444  2.91666666666667 8.71527777777778  2.91666666666667 10  C 2.91666666666667 11.2847222222222  3.23350694444444 12.4696180555556  3.8671875 13.5546875  C 4.50086805555556 14.6397569444444  5.36024305555556 15.4991319444444  6.4453125 16.1328125  Z M 13.75 14.1666666666667  L 11.25 14.1666666666667  C 11.1284722222222 14.1666666666667  11.0286458333333 14.1276041666667  10.9505208333333 14.0494791666667  C 10.8723958333333 13.9713541666667  10.8333333333333 13.8715277777778  10.8333333333333 13.75  L 10.8333333333333 6.25  C 10.8333333333333 6.12847222222222  10.8723958333333 6.02864583333333  10.9505208333333 5.95052083333333  C 11.0286458333333 5.87239583333333  11.1284722222222 5.83333333333333  11.25 5.83333333333333  L 13.75 5.83333333333333  C 13.8715277777778 5.83333333333333  13.9713541666667 5.87239583333333  14.0494791666667 5.95052083333333  C 14.1276041666667 6.02864583333333  14.1666666666667 6.12847222222222  14.1666666666667 6.25  L 14.1666666666667 13.75  C 14.1666666666667 13.8715277777778  14.1276041666667 13.9713541666667  14.0494791666667 14.0494791666667  C 13.9713541666667 14.1276041666667  13.8715277777778 14.1666666666667  13.75 14.1666666666667  Z M 8.75 14.1666666666667  L 6.25 14.1666666666667  C 6.12847222222222 14.1666666666667  6.02864583333333 14.1276041666667  5.95052083333333 14.0494791666667  C 5.87239583333333 13.9713541666667  5.83333333333333 13.8715277777778  5.83333333333333 13.75  L 5.83333333333333 6.25  C 5.83333333333333 6.12847222222222  5.87239583333333 6.02864583333333  5.95052083333333 5.95052083333333  C 6.02864583333333 5.87239583333333  6.12847222222222 5.83333333333333  6.25 5.83333333333333  L 8.75 5.83333333333333  C 8.87152777777778 5.83333333333333  8.97135416666667 5.87239583333333  9.04947916666667 5.95052083333333  C 9.12760416666667 6.02864583333333  9.16666666666667 6.12847222222222  9.16666666666667 6.25  L 9.16666666666667 13.75  C 9.16666666666667 13.8715277777778  9.12760416666667 13.9713541666667  9.04947916666667 14.0494791666667  C 8.97135416666667 14.1276041666667  8.87152777777778 14.1666666666667  8.75 14.1666666666667  Z " fill-rule="nonzero" fill="#13bcab" stroke="none" transform="matrix(1 0 0 1 551 15 )" />
  </g>
</svg>