<?xml version="1.0" encoding="utf-8"?>
<svg version="1.1" xmlns:xlink="http://www.w3.org/1999/xlink" width="10px" height="20px" xmlns="http://www.w3.org/2000/svg">
  <g transform="matrix(1 0 0 1 -532 -16 )">
    <path d="M 9.57142857142857 14.8148148148148  C 9.75324675324675 14.8148148148148  9.87878787878788 14.8881172839506  9.94805194805195 15.0347222222222  C 10.017316017316 15.1813271604938  9.995670995671 15.3163580246914  9.88311688311688 15.4398148148148  L 5.33766233766234 19.8842592592593  C 5.25108225108225 19.9614197530864  5.15151515151515 20  5.03896103896104 20  C 4.91774891774892 20  4.81385281385281 19.9614197530864  4.72727272727273 19.8842592592593  L 0.116883116883117 15.4398148148148  C 0.00432900432900432 15.3163580246914  -0.0173160173160173 15.1813271604938  0.051948051948052 15.0347222222222  C 0.12987012987013 14.8881172839506  0.255411255411255 14.8148148148148  0.428571428571429 14.8148148148148  L 3.33766233766234 14.8148148148148  L 3.33766233766234 0.37037037037037  C 3.33766233766234 0.262345679012344  3.37662337662338 0.173611111111112  3.45454545454545 0.104166666666667  C 3.53246753246753 0.0347222222222232  3.63203463203463 0  3.75324675324675 0  L 6.24675324675325 0  C 6.36796536796537 0  6.46753246753247 0.0347222222222232  6.54545454545455 0.104166666666667  C 6.62337662337662 0.173611111111112  6.66233766233766 0.262345679012344  6.66233766233766 0.37037037037037  L 6.66233766233766 14.8148148148148  L 9.57142857142857 14.8148148148148  Z " fill-rule="nonzero" fill="#333333" stroke="none" transform="matrix(1 0 0 1 532 16 )" />
  </g>
</svg>