<?xml version="1.0" encoding="utf-8"?>
<svg version="1.1" xmlns:xlink="http://www.w3.org/1999/xlink" width="8px" height="16px" xmlns="http://www.w3.org/2000/svg">
  <g transform="matrix(1 0 0 1 -30 -254 )">
    <path d="M 7.73611111111111 7.296875  C 7.91203703703704 7.49479166666667  8 7.72916666666667  8 8  C 8 8.27083333333333  7.91203703703704 8.50520833333333  7.73611111111111 8.703125  L 1.51388888888889 15.703125  C 1.33796296296296 15.9010416666667  1.12962962962963 16  0.888888888888889 16  C 0.648148148148148 16  0.439814814814815 15.9010416666667  0.263888888888889 15.703125  C 0.087962962962963 15.5052083333333  0 15.2708333333333  0 15  L 0 1  C 0 0.729166666666664  0.087962962962963 0.494791666666664  0.263888888888889 0.296875  C 0.439814814814815 0.0989583333333321  0.648148148148148 0  0.888888888888889 0  C 1.12962962962963 0  1.33796296296296 0.0989583333333321  1.51388888888889 0.296875  L 7.73611111111111 7.296875  Z " fill-rule="nonzero" fill="#aaaaaa" stroke="none" transform="matrix(1 0 0 1 30 254 )" />
  </g>
</svg>