<?xml version="1.0" encoding="utf-8"?>
<svg version="1.1" xmlns:xlink="http://www.w3.org/1999/xlink" width="12px" height="12px" viewBox="120 495  12 12" xmlns="http://www.w3.org/2000/svg">
  <path d="M 126 495  C 129.36 495  132 497.64  132 501  C 132 504.36  129.36 507  126 507  C 122.64 507  120 504.36  120 501  C 120 497.64  122.64 495  126 495  Z " fill-rule="nonzero" fill="#f0f0f0" stroke="none" />
  <path d="M 126 495.5  C 129.08 495.5  131.5 497.92  131.5 501  C 131.5 504.08  129.08 506.5  126 506.5  C 122.92 506.5  120.5 504.08  120.5 501  C 120.5 497.92  122.92 495.5  126 495.5  Z " stroke-width="1" stroke="#797979" fill="none" />
  <path d="M 126 504  C 124.32 504  123 502.68  123 501  C 123 499.32  124.32 498  126 498  C 127.68 498  129 499.32  129 501  C 129 502.68  127.68 504  126 504  " fill-rule="nonzero" fill="#797979" stroke="none" />
</svg>