<?xml version="1.0" encoding="utf-8"?>
<svg version="1.1" xmlns:xlink="http://www.w3.org/1999/xlink" width="12px" height="12px" viewBox="320 495  12 12" xmlns="http://www.w3.org/2000/svg">
  <path d="M 326 495  C 329.36 495  332 497.64  332 501  C 332 504.36  329.36 507  326 507  C 322.64 507  320 504.36  320 501  C 320 497.64  322.64 495  326 495  Z " fill-rule="nonzero" fill="#f0f0f0" stroke="none" />
  <path d="M 326 495.5  C 329.08 495.5  331.5 497.92  331.5 501  C 331.5 504.08  329.08 506.5  326 506.5  C 322.92 506.5  320.5 504.08  320.5 501  C 320.5 497.92  322.92 495.5  326 495.5  Z " stroke-width="1" stroke="#797979" fill="none" />
  <path d="M 326 504  C 324.32 504  323 502.68  323 501  C 323 499.32  324.32 498  326 498  C 327.68 498  329 499.32  329 501  C 329 502.68  327.68 504  326 504  " fill-rule="nonzero" fill="#797979" stroke="none" />
</svg>