<?xml version="1.0" encoding="utf-8"?>
<svg version="1.1" xmlns:xlink="http://www.w3.org/1999/xlink" width="10px" height="20px" xmlns="http://www.w3.org/2000/svg">
  <g transform="matrix(1 0 0 1 -346 -16 )">
    <path d="M 9.88311688311688 4.56018518518519  C 9.995670995671 4.68364197530864  10.017316017316 4.81867283950617  9.94805194805195 4.96527777777778  C 9.87012987012987 5.11188271604938  9.74458874458874 5.18518518518519  9.57142857142857 5.18518518518519  L 6.66233766233766 5.18518518518519  L 6.66233766233766 19.6296296296296  C 6.66233766233766 19.7376543209877  6.62337662337662 19.8263888888889  6.54545454545455 19.8958333333333  C 6.46753246753247 19.9652777777778  6.36796536796537 20  6.24675324675325 20  L 3.75324675324675 20  C 3.63203463203463 20  3.53246753246753 19.9652777777778  3.45454545454545 19.8958333333333  C 3.37662337662338 19.8263888888889  3.33766233766234 19.7376543209877  3.33766233766234 19.6296296296296  L 3.33766233766234 5.18518518518519  L 0.428571428571429 5.18518518518519  C 0.246753246753247 5.18518518518519  0.121212121212121 5.11188271604938  0.051948051948052 4.96527777777778  C -0.0173160173160173 4.81867283950617  0.00432900432900432 4.68364197530864  0.116883116883117 4.56018518518519  L 4.66233766233766 0.115740740740742  C 4.74891774891775 0.0385802469135799  4.84848484848485 0  4.96103896103896 0  C 5.08225108225108 0  5.18614718614719 0.0385802469135799  5.27272727272727 0.115740740740742  L 9.88311688311688 4.56018518518519  Z " fill-rule="nonzero" fill="#13bcab" stroke="none" transform="matrix(1 0 0 1 346 16 )" />
  </g>
</svg>