<?xml version="1.0" encoding="utf-8"?>
<svg version="1.1" xmlns:xlink="http://www.w3.org/1999/xlink" width="18px" height="20px" xmlns="http://www.w3.org/2000/svg">
  <g transform="matrix(1 0 0 1 -312 -66 )">
    <path d="M 2.77734375 16.6947115384615  C 2.92578125 16.5424679487179  3 16.3621794871795  3 16.1538461538462  C 3 15.9455128205128  2.92578125 15.7652243589744  2.77734375 15.6129807692308  C 2.62890625 15.4607371794872  2.453125 15.3846153846154  2.25 15.3846153846154  C 2.046875 15.3846153846154  1.87109375 15.4607371794872  1.72265625 15.6129807692308  C 1.57421875 15.7652243589744  1.5 15.9455128205128  1.5 16.1538461538462  C 1.5 16.3621794871795  1.57421875 16.5424679487179  1.72265625 16.6947115384615  C 1.87109375 16.8469551282051  2.046875 16.9230769230769  2.25 16.9230769230769  C 2.453125 16.9230769230769  2.62890625 16.8469551282051  2.77734375 16.6947115384615  Z M 16.248046875 10.2043269230769  C 16.416015625 9.83573717948718  16.5 9.51121794871795  16.5 9.23076923076923  C 16.5 8.82211538461538  16.34765625 8.46354166666666  16.04296875 8.15504807692308  C 15.73828125 7.84655448717949  15.390625 7.69230769230769  15 7.69230769230769  L 10.875 7.69230769230769  C 10.875 7.2275641025641  11.0625 6.58854166666667  11.4375 5.77524038461539  C 11.8125 4.9619391025641  12 4.31891025641026  12 3.84615384615385  C 12 3.06089743589743  11.875 2.47996794871795  11.625 2.10336538461539  C 11.375 1.72676282051282  10.875 1.53846153846154  10.125 1.53846153846154  C 9.921875 1.74679487179487  9.7734375 2.08733974358974  9.6796875 2.56009615384615  C 9.5859375 3.03285256410256  9.466796875 3.53565705128205  9.322265625 4.06850961538462  C 9.177734375 4.60136217948718  8.9453125 5.0400641025641  8.625 5.38461538461539  C 8.453125 5.56891025641026  8.15234375 5.93349358974359  7.72265625 6.47836538461539  C 7.69140625 6.51842948717949  7.6015625 6.63862179487179  7.453125 6.83894230769231  C 7.3046875 7.03926282051282  7.181640625 7.20352564102564  7.083984375 7.33173076923077  C 6.986328125 7.4599358974359  6.8515625 7.63020833333333  6.6796875 7.84254807692308  C 6.5078125 8.05488782051282  6.3515625 8.23116987179487  6.2109375 8.37139423076923  C 6.0703125 8.51161858974359  5.919921875 8.65384615384615  5.759765625 8.79807692307692  C 5.599609375 8.94230769230769  5.443359375 9.05048076923077  5.291015625 9.12259615384615  C 5.138671875 9.19471153846154  5 9.23076923076923  4.875 9.23076923076923  L 4.5 9.23076923076923  L 4.5 16.9230769230769  L 4.875 16.9230769230769  C 4.9765625 16.9230769230769  5.099609375 16.9350961538462  5.244140625 16.9591346153846  C 5.388671875 16.9831730769231  5.517578125 17.0092147435897  5.630859375 17.0372596153846  C 5.744140625 17.0653044871795  5.892578125 17.109375  6.076171875 17.1694711538462  C 6.259765625 17.2295673076923  6.396484375 17.275641025641  6.486328125 17.3076923076923  C 6.576171875 17.3397435897436  6.71484375 17.3898237179487  6.90234375 17.4579326923077  C 7.08984375 17.5260416666667  7.203125 17.568108974359  7.2421875 17.5841346153846  C 8.890625 18.1690705128205  10.2265625 18.4615384615385  11.25 18.4615384615385  L 12.66796875 18.4615384615385  C 14.16796875 18.4615384615385  14.91796875 17.7924679487179  14.91796875 16.4543269230769  C 14.91796875 16.2459935897436  14.8984375 16.0216346153846  14.859375 15.78125  C 15.09375 15.6530448717949  15.279296875 15.4427083333333  15.416015625 15.1502403846154  C 15.552734375 14.8577724358974  15.62109375 14.5633012820513  15.62109375 14.2668269230769  C 15.62109375 13.9703525641026  15.55078125 13.6939102564103  15.41015625 13.4375  C 15.82421875 13.036858974359  16.03125 12.5600961538462  16.03125 12.0072115384615  C 16.03125 11.806891025641  15.9921875 11.5845352564103  15.9140625 11.3401442307692  C 15.8359375 11.0957532051282  15.73828125 10.9054487179487  15.62109375 10.7692307692308  C 15.87109375 10.7612179487179  16.080078125 10.5729166666667  16.248046875 10.2043269230769  Z M 17.109375 7.06730769230769  C 17.703125 7.67628205128205  18 8.39342948717949  18 9.21875  C 18 9.93189102564102  17.80859375 10.5849358974359  17.42578125 11.1778846153846  C 17.49609375 11.4423076923077  17.53125 11.71875  17.53125 12.0072115384615  C 17.53125 12.6241987179487  17.3828125 13.2011217948718  17.0859375 13.7379807692308  C 17.109375 13.90625  17.12109375 14.0785256410256  17.12109375 14.2548076923077  C 17.12109375 15.0641025641026  16.88671875 15.7772435897436  16.41796875 16.3942307692308  C 16.42578125 17.5080128205128  16.09375 18.3874198717949  15.421875 19.0324519230769  C 14.75 19.677483974359  13.86328125 20  12.76171875 20  L 12.33984375 20  L 11.25 20  C 10.5 20  9.759765625 19.9098557692308  9.029296875 19.7295673076923  C 8.298828125 19.5492788461538  7.453125 19.286858974359  6.4921875 18.9423076923077  C 5.5859375 18.6217948717949  5.046875 18.4615384615385  4.875 18.4615384615385  L 1.5 18.4615384615385  C 1.0859375 18.4615384615385  0.732421875 18.3112980769231  0.439453125 18.0108173076923  C 0.146484375 17.7103365384615  0 17.3477564102564  0 16.9230769230769  L 0 9.23076923076923  C 0 8.80608974358974  0.146484375 8.44350961538462  0.439453125 8.14302884615385  C 0.732421875 7.84254807692308  1.0859375 7.69230769230769  1.5 7.69230769230769  L 4.7109375 7.69230769230769  C 4.9921875 7.5  5.52734375 6.87900641025641  6.31640625 5.82932692307692  C 6.76953125 5.22836538461539  7.1875 4.71554487179487  7.5703125 4.29086538461539  C 7.7578125 4.09054487179487  7.896484375 3.74799679487179  7.986328125 3.26322115384615  C 8.076171875 2.77844551282051  8.1953125 2.27163461538461  8.34375 1.74278846153846  C 8.4921875 1.21394230769231  8.734375 0.78125  9.0703125 0.444711538461537  C 9.375 0.148237179487181  9.7265625 0  10.125 0  C 10.78125 0  11.37109375 0.130208333333335  11.89453125 0.390625  C 12.41796875 0.651041666666665  12.81640625 1.05769230769231  13.08984375 1.61057692307692  C 13.36328125 2.16346153846154  13.5 2.90865384615385  13.5 3.84615384615385  C 13.5 4.59134615384615  13.3125 5.36057692307692  12.9375 6.15384615384615  L 15 6.15384615384615  C 15.8125 6.15384615384615  16.515625 6.45833333333333  17.109375 7.06730769230769  Z " fill-rule="nonzero" fill="#999999" stroke="none" transform="matrix(1 0 0 1 312 66 )" />
  </g>
</svg>