<?xml version="1.0" encoding="utf-8"?>
<svg version="1.1" xmlns:xlink="http://www.w3.org/1999/xlink" width="20px" height="15px" xmlns="http://www.w3.org/2000/svg">
  <g transform="matrix(1 0 0 1 -56 -132 )">
    <path d="M 6.08333333333333 3.046875  C 6.47222222222222 3.41145833333333  6.66666666666667 3.85416666666666  6.66666666666667 4.375  C 6.66666666666667 4.89583333333333  6.47222222222222 5.33854166666667  6.08333333333333 5.703125  C 5.69444444444445 6.06770833333333  5.22222222222222 6.25  4.66666666666667 6.25  C 4.11111111111111 6.25  3.63888888888889 6.06770833333333  3.25 5.703125  C 2.86111111111111 5.33854166666667  2.66666666666667 4.89583333333333  2.66666666666667 4.375  C 2.66666666666667 3.85416666666666  2.86111111111111 3.41145833333333  3.25 3.046875  C 3.63888888888889 2.68229166666666  4.11111111111111 2.5  4.66666666666667 2.5  C 5.22222222222222 2.5  5.69444444444445 2.68229166666666  6.08333333333333 3.046875  Z M 13 4.0625  L 17.3333333333333 8.125  L 17.3333333333333 12.5  L 2.66666666666667 12.5  L 2.66666666666667 10.625  L 6 7.5  L 7.66666666666667 9.0625  L 13 4.0625  Z M 18.5677083333333 1.3427734375  C 18.5017361111111 1.28092447916667  18.4236111111111 1.25  18.3333333333333 1.25  L 1.66666666666667 1.25  C 1.57638888888889 1.25  1.49826388888889 1.28092447916667  1.43229166666667 1.3427734375  C 1.36631944444444 1.40462239583333  1.33333333333333 1.47786458333333  1.33333333333333 1.5625  L 1.33333333333333 13.4375  C 1.33333333333333 13.5221354166667  1.36631944444444 13.5953776041667  1.43229166666667 13.6572265625  C 1.49826388888889 13.7190755208333  1.57638888888889 13.75  1.66666666666667 13.75  L 18.3333333333333 13.75  C 18.4236111111111 13.75  18.5017361111111 13.7190755208333  18.5677083333333 13.6572265625  C 18.6336805555556 13.5953776041667  18.6666666666667 13.5221354166667  18.6666666666667 13.4375  L 18.6666666666667 1.5625  C 18.6666666666667 1.47786458333333  18.6336805555556 1.40462239583333  18.5677083333333 1.3427734375  Z M 19.5104166666667 0.458984375000001  C 19.8368055555556 0.764973958333333  20 1.1328125  20 1.5625  L 20 13.4375  C 20 13.8671875  19.8368055555556 14.2350260416667  19.5104166666667 14.541015625  C 19.1840277777778 14.8470052083333  18.7916666666667 15  18.3333333333333 15  L 1.66666666666667 15  C 1.20833333333333 15  0.815972222222222 14.8470052083333  0.489583333333333 14.541015625  C 0.163194444444444 14.2350260416667  0 13.8671875  0 13.4375  L 0 1.5625  C 0 1.1328125  0.163194444444444 0.764973958333333  0.489583333333333 0.458984375000001  C 0.815972222222222 0.152994791666665  1.20833333333333 0  1.66666666666667 0  L 18.3333333333333 0  C 18.7916666666667 0  19.1840277777778 0.152994791666665  19.5104166666667 0.458984375000001  Z " fill-rule="nonzero" fill="#333333" stroke="none" transform="matrix(1 0 0 1 56 132 )" />
  </g>
</svg>