<?xml version="1.0" encoding="utf-8"?>
<svg version="1.1" xmlns:xlink="http://www.w3.org/1999/xlink" width="22px" height="18px" xmlns="http://www.w3.org/2000/svg">
  <g transform="matrix(1 0 0 1 -1421 -16 )">
    <path d="M 10.2600896860987 13.5  L 10.9506726457399 13.5  L 12.3811659192825 12.0170454545455  L 10.5067264573991 10.0738636363636  L 9.0762331838565 11.5568181818182  L 9.0762331838565 12.2727272727273  L 10.2600896860987 12.2727272727273  L 10.2600896860987 13.5  Z M 16.3643497757848 4.71732954545455  C 16.504110612855 4.57244318181818  16.50822122571 4.43181818181818  16.3766816143498 4.29545454545455  C 16.2451420029895 4.15909090909091  16.1094917787743 4.16335227272727  15.969730941704 4.30823863636364  L 11.6535874439462 8.78267045454546  C 11.5138266068759 8.92755681818182  11.5097159940209 9.06818181818182  11.6412556053812 9.20454545454546  C 11.7727952167414 9.34090909090909  11.9084454409567 9.33664772727272  12.0482062780269 9.19176136363637  L 16.3643497757848 4.71732954545455  Z M 17.1165919282511 11.5184659090909  C 17.2810164424514 11.5866477272727  17.3632286995516 11.7102272727273  17.3632286995516 11.8892045454545  L 17.3632286995516 14.3181818181818  C 17.3632286995516 15.3323863636364  17.0158819133034 16.1995738636364  16.3211883408072 16.9197443181818  C 15.6264947683109 17.6399147727273  14.7899850523169 18  13.8116591928251 18  L 3.55156950672646 18  C 2.57324364723468 18  1.73673393124066 17.6399147727273  1.04204035874439 16.9197443181818  C 0.347346786248131 16.1995738636364  0 15.3323863636364  0 14.3181818181818  L 0 3.68181818181818  C 0 2.66761363636363  0.347346786248131 1.80042613636364  1.04204035874439 1.08025568181818  C 1.73673393124066 0.360085227272726  2.57324364723468 0  3.55156950672646 0  L 13.8116591928251 0  C 14.3295964125561 0  14.8105381165919 0.10653409090909  15.2544843049327 0.319602272727272  C 15.377802690583 0.379261363636362  15.4517937219731 0.477272727272727  15.4764573991031 0.613636363636363  C 15.5011210762332 0.758522727272727  15.4641255605381 0.882102272727272  15.3654708520179 0.984375  L 14.7612107623318 1.61079545454545  C 14.6461136023916 1.73011363636364  14.5145739910314 1.76420454545455  14.3665919282511 1.71306818181818  C 14.1775037369208 1.66193181818182  13.9925261584454 1.63636363636364  13.8116591928251 1.63636363636364  L 3.55156950672646 1.63636363636364  C 3.00896860986547 1.63636363636364  2.54446935724963 1.83664772727273  2.15807174887892 2.23721590909091  C 1.77167414050822 2.63778409090909  1.57847533632287 3.11931818181818  2 3.68181818181818  L 2 14.3181818181818  C 1.57847533632287 14.8806818181818  1.77167414050822 15.3622159090909  2.15807174887892 15.7627840909091  C 2.54446935724963 16.1633522727273  3.00896860986547 16.3636363636364  3.55156950672646 16.3636363636364  L 13.8116591928251 16.3636363636364  C 14.3542600896861 16.3636363636364  14.8187593423019 16.1633522727273  15.2051569506726 15.7627840909091  C 15.5915545590433 15.3622159090909  15.7847533632287 14.8806818181818  15.7847533632287 14.3181818181818  L 15.7847533632287 12.7073863636364  C 15.7847533632287 12.5965909090909  15.8217488789238 12.5028409090909  15.8957399103139 12.4261363636364  L 16.6849775784753 11.6079545454545  C 16.8082959641256 11.4801136363636  16.9521674140508 11.4502840909091  17.1165919282511 11.5184659090909  Z M 7.89237668161435 11.0454545454545  L 16.1793721973094 2.45454545454545  L 19.7309417040359 6.13636363636364  L 11.4439461883408 14.7272727272727  L 7.89237668161435 14.7272727272727  L 7.89237668161435 11.0454545454545  Z M 22 3.27272727272727  C 22 3.61363636363636  21.8849028400598 3.90340909090909  21.6547085201794 4.14204545454545  L 20.5201793721973 5.31818181818182  L 16.9686098654709 1.63636363636364  L 18.1031390134529 0.460227272727272  C 18.3333333333333 0.221590909090907  18.6128550074738 0.102272727272728  18.9417040358744 0.102272727272728  C 19.270553064275 0.102272727272728  19.5500747384155 0.221590909090907  19.780269058296 0.460227272727272  L 21.6547085201794 2.40340909090909  C 21.8849028400598 2.64204545454545  22 2.93181818181818  22 3.27272727272727  Z " fill-rule="nonzero" fill="#333333" stroke="none" transform="matrix(1 0 0 1 1421 16 )" />
  </g>
</svg>