<?xml version="1.0" encoding="utf-8"?>
<svg version="1.1" xmlns:xlink="http://www.w3.org/1999/xlink" width="140px" height="28px" viewBox="471 576  140 28" xmlns="http://www.w3.org/2000/svg">
  <path d="M 472 579  A 2 2 0 0 1 474 577 L 608 577  A 2 2 0 0 1 610 579 L 610 601  A 2 2 0 0 1 608 603 L 474 603  A 2 2 0 0 1 472 601 L 472 579  Z " fill-rule="nonzero" fill="#ffffff" stroke="none" />
  <path d="M 471.5 579  A 2.5 2.5 0 0 1 474 576.5 L 608 576.5  A 2.5 2.5 0 0 1 610.5 579 L 610.5 601  A 2.5 2.5 0 0 1 608 603.5 L 474 603.5  A 2.5 2.5 0 0 1 471.5 601 L 471.5 579  Z " stroke-width="1" stroke="#797979" fill="none" stroke-opacity="0.250980392156863" />
</svg>