<?xml version="1.0" encoding="utf-8"?>
<svg version="1.1" xmlns:xlink="http://www.w3.org/1999/xlink" width="12px" height="12px" viewBox="220 452  12 12" xmlns="http://www.w3.org/2000/svg">
  <path d="M 226 452  C 229.36 452  232 454.64  232 458  C 232 461.36  229.36 464  226 464  C 222.64 464  220 461.36  220 458  C 220 454.64  222.64 452  226 452  Z " fill-rule="nonzero" fill="#f0f0f0" stroke="none" />
  <path d="M 226 452.5  C 229.08 452.5  231.5 454.92  231.5 458  C 231.5 461.08  229.08 463.5  226 463.5  C 222.92 463.5  220.5 461.08  220.5 458  C 220.5 454.92  222.92 452.5  226 452.5  Z " stroke-width="1" stroke="#797979" fill="none" />
  <path d="M 226 461  C 224.32 461  223 459.68  223 458  C 223 456.32  224.32 455  226 455  C 227.68 455  229 456.32  229 458  C 229 459.68  227.68 461  226 461  " fill-rule="nonzero" fill="#797979" stroke="none" />
</svg>