<?xml version="1.0" encoding="utf-8"?>
<svg version="1.1" xmlns:xlink="http://www.w3.org/1999/xlink" width="12px" height="12px" viewBox="320 452  12 12" xmlns="http://www.w3.org/2000/svg">
  <path d="M 326 452  C 329.36 452  332 454.64  332 458  C 332 461.36  329.36 464  326 464  C 322.64 464  320 461.36  320 458  C 320 454.64  322.64 452  326 452  Z " fill-rule="nonzero" fill="#f0f0f0" stroke="none" />
  <path d="M 326 452.5  C 329.08 452.5  331.5 454.92  331.5 458  C 331.5 461.08  329.08 463.5  326 463.5  C 322.92 463.5  320.5 461.08  320.5 458  C 320.5 454.92  322.92 452.5  326 452.5  Z " stroke-width="1" stroke="#797979" fill="none" />
  <path d="M 326 461  C 324.32 461  323 459.68  323 458  C 323 456.32  324.32 455  326 455  C 327.68 455  329 456.32  329 458  C 329 459.68  327.68 461  326 461  " fill-rule="nonzero" fill="#797979" stroke="none" />
</svg>