<?xml version="1.0" encoding="utf-8"?>
<svg version="1.1" xmlns:xlink="http://www.w3.org/1999/xlink" width="12px" height="12px" viewBox="120 452  12 12" xmlns="http://www.w3.org/2000/svg">
  <path d="M 126 452  C 129.36 452  132 454.64  132 458  C 132 461.36  129.36 464  126 464  C 122.64 464  120 461.36  120 458  C 120 454.64  122.64 452  126 452  Z " fill-rule="nonzero" fill="#f0f0f0" stroke="none" />
  <path d="M 126 452.5  C 129.08 452.5  131.5 454.92  131.5 458  C 131.5 461.08  129.08 463.5  126 463.5  C 122.92 463.5  120.5 461.08  120.5 458  C 120.5 454.92  122.92 452.5  126 452.5  Z " stroke-width="1" stroke="#797979" fill="none" />
  <path d="M 126 461  C 124.32 461  123 459.68  123 458  C 123 456.32  124.32 455  126 455  C 127.68 455  129 456.32  129 458  C 129 459.68  127.68 461  126 461  " fill-rule="nonzero" fill="#797979" stroke="none" />
</svg>