<?xml version="1.0" encoding="utf-8"?>
<svg version="1.1" xmlns:xlink="http://www.w3.org/1999/xlink" width="110px" height="84px" xmlns="http://www.w3.org/2000/svg">
  <g transform="matrix(1 0 0 1 -25 -1794 )">
    <path d="M 25 1794  L 135 1794  L 135 1878  L 25 1878  L 25 1794  " fill-rule="nonzero" fill="#cccccc" stroke="none" />
    <path d="M 31 1800  L 129 1800  L 129 1872  L 31 1872  L 31 1800  " fill-rule="nonzero" fill="#ffffff" stroke="none" />
    <path d="M 88.5 1819.2  C 84.972 1819.2  82.2 1816.428  82.2 1812.9  C 82.2 1809.372  84.972 1806.6  88.5 1806.6  C 92.028 1806.6  94.8 1809.372  94.8 1812.9  C 94.8 1816.428  92.028 1819.2  88.5 1819.2  " fill-rule="nonzero" fill="#cccccc" stroke="none" />
    <path d="M 33 1870  L 33 1832.6  L 56.5 1815.6  L 89.4 1838.84363636364  L 108.2 1825.8  L 127 1838.84363636364  L 127 1870  L 33 1870  " fill-rule="nonzero" fill="#169bd5" stroke="none" />
  </g>
</svg>