<?xml version="1.0" encoding="utf-8"?>
<svg version="1.1" xmlns:xlink="http://www.w3.org/1999/xlink" width="46px" height="50px" xmlns="http://www.w3.org/2000/svg">
  <g transform="matrix(1 0 0 1 -172 -157 )">
    <path d="M 34.6197916666667 1.89732142857143  L 43.9635416666667 10.6026785714286  C 44.5225694444445 11.1235119047619  45.0017361111111 11.8303571428571  45.4010416666667 12.7232142857143  C 45.8003472222222 13.6160714285714  46 14.4345238095238  46 15.1785714285714  L 46 47.3214285714286  C 46 48.0654761904762  45.7204861111111 48.6979166666667  45.1614583333333 49.21875  C 44.6024305555556 49.7395833333333  43.9236111111111 50  43.125 50  L 2.875 50  C 2.07638888888889 50  1.39756944444444 49.7395833333333  0.838541666666667 49.21875  C 0.279513888888889 48.6979166666667  0 48.0654761904762  0 47.3214285714286  L 0 2.67857142857143  C 0 1.93452380952381  0.279513888888889 1.30208333333333  0.838541666666667 0.78125  C 1.39756944444444 0.260416666666669  2.07638888888889 0  2.875 0  L 29.7083333333333 0  C 30.5069444444445 0  31.3854166666667 0.186011904761907  32.34375 0.558035714285715  C 33.3020833333333 0.930059523809523  34.0607638888889 1.37648809523809  34.6197916666667 1.89732142857143  Z M 31.89453125 4.40848214285715  C 31.6549479166667 4.18526785714286  31.2456597222222 3.98065476190476  30 3.79464285714286  L 30 15  L 41.9270833333333 15  C 41.7274305555556 13.7462797619048  41.5078125 13.3649553571429  41.2682291666667 13.1417410714286  L 31.89453125 4.40848214285715  Z M 4 46  L 42 46  L 42 18  L 29.7083333333333 18  C 28.9097222222222 17.8571428571429  28.2309027777778 17.5967261904762  27.671875 17.0758928571429  C 27.1128472222222 16.5550595238095  26.8333333333333 15.922619047619  26 15.1785714285714  L 26 4  L 4 4  L 4 46  Z M 28.75 25  L 38.3333333333333 33.9285714285714  L 38.3333333333333 42  L 7.66666666666667 42  L 7.66666666666667 37.5  L 13.4166666666667 32.1428571428571  L 17.25 35.7142857142857  L 28.75 25  Z M 17.4895833333333 27.0089285714286  C 16.3715277777778 28.0505952380952  15.0138888888889 28.5714285714286  13.4166666666667 28.5714285714286  C 11.8194444444444 28.5714285714286  10.4618055555556 28.0505952380952  9.34375 27.0089285714286  C 8.22569444444444 25.9672619047619  7.66666666666667 24.7023809523809  7.66666666666667 23.2142857142857  C 7.66666666666667 21.7261904761905  8.22569444444444 20.4613095238095  9.34375 19.4196428571429  C 10.4618055555556 18.3779761904762  11.8194444444444 17.8571428571429  13.4166666666667 17.8571428571429  C 15.0138888888889 17.8571428571429  16.3715277777778 18.3779761904762  17.4895833333333 19.4196428571429  C 18.6076388888889 20.4613095238095  19.1666666666667 21.7261904761905  19.1666666666667 23.2142857142857  C 19.1666666666667 24.7023809523809  18.6076388888889 25.9672619047619  17.4895833333333 27.0089285714286  Z " fill-rule="nonzero" fill="#000000" stroke="none" transform="matrix(1 0 0 1 172 157 )" />
  </g>
</svg>