<?xml version="1.0" encoding="utf-8"?>
<svg version="1.1" xmlns:xlink="http://www.w3.org/1999/xlink" width="360px" height="25px" viewBox="57 242  360 25" xmlns="http://www.w3.org/2000/svg">
  <path d="M 58 245  A 2 2 0 0 1 60 243 L 414 243  A 2 2 0 0 1 416 245 L 416 264  A 2 2 0 0 1 414 266 L 60 266  A 2 2 0 0 1 58 264 L 58 245  Z " fill-rule="nonzero" fill="#f0f0f0" stroke="none" />
  <path d="M 57.5 245  A 2.5 2.5 0 0 1 60 242.5 L 414 242.5  A 2.5 2.5 0 0 1 416.5 245 L 416.5 264  A 2.5 2.5 0 0 1 414 266.5 L 60 266.5  A 2.5 2.5 0 0 1 57.5 264 L 57.5 245  Z " stroke-width="1" stroke="#797979" fill="none" stroke-opacity="0.250980392156863" />
</svg>