<?xml version="1.0" encoding="utf-8"?>
<svg version="1.1" xmlns:xlink="http://www.w3.org/1999/xlink" width="12px" height="12px" viewBox="57 455  12 12" xmlns="http://www.w3.org/2000/svg">
  <path d="M 63 455  C 66.36 455  69 457.64  69 461  C 69 464.36  66.36 467  63 467  C 59.64 467  57 464.36  57 461  C 57 457.64  59.64 455  63 455  Z " fill-rule="nonzero" fill="#ffffff" stroke="none" />
  <path d="M 63 455.5  C 66.08 455.5  68.5 457.92  68.5 461  C 68.5 464.08  66.08 466.5  63 466.5  C 59.92 466.5  57.5 464.08  57.5 461  C 57.5 457.92  59.92 455.5  63 455.5  Z " stroke-width="1" stroke="#797979" fill="none" />
  <path d="M 63 464  C 61.32 464  60 462.68  60 461  C 60 459.32  61.32 458  63 458  C 64.68 458  66 459.32  66 461  C 66 462.68  64.68 464  63 464  " fill-rule="nonzero" fill="#797979" stroke="none" />
</svg>