<?xml version="1.0" encoding="utf-8"?>
<svg version="1.1" xmlns:xlink="http://www.w3.org/1999/xlink" width="12px" height="12px" viewBox="157 90  12 12" xmlns="http://www.w3.org/2000/svg">
  <path d="M 163 90  C 166.36 90  169 92.64  169 96  C 169 99.36  166.36 102  163 102  C 159.64 102  157 99.36  157 96  C 157 92.64  159.64 90  163 90  Z " fill-rule="nonzero" fill="#f0f0f0" stroke="none" />
  <path d="M 163 90.5  C 166.08 90.5  168.5 92.92  168.5 96  C 168.5 99.08  166.08 101.5  163 101.5  C 159.92 101.5  157.5 99.08  157.5 96  C 157.5 92.92  159.92 90.5  163 90.5  Z " stroke-width="1" stroke="#797979" fill="none" />
  <path d="M 163 99  C 161.32 99  160 97.68  160 96  C 160 94.32  161.32 93  163 93  C 164.68 93  166 94.32  166 96  C 166 97.68  164.68 99  163 99  " fill-rule="nonzero" fill="#797979" stroke="none" />
</svg>