<?xml version="1.0" encoding="utf-8"?>
<svg version="1.1" xmlns:xlink="http://www.w3.org/1999/xlink" width="12px" height="12px" viewBox="57 139  12 12" xmlns="http://www.w3.org/2000/svg">
  <path d="M 63 139  C 66.36 139  69 141.64  69 145  C 69 148.36  66.36 151  63 151  C 59.64 151  57 148.36  57 145  C 57 141.64  59.64 139  63 139  Z " fill-rule="nonzero" fill="#f0f0f0" stroke="none" />
  <path d="M 63 139.5  C 66.08 139.5  68.5 141.92  68.5 145  C 68.5 148.08  66.08 150.5  63 150.5  C 59.92 150.5  57.5 148.08  57.5 145  C 57.5 141.92  59.92 139.5  63 139.5  Z " stroke-width="1" stroke="#797979" fill="none" />
  <path d="M 63 148  C 61.32 148  60 146.68  60 145  C 60 143.32  61.32 142  63 142  C 64.68 142  66 143.32  66 145  C 66 146.68  64.68 148  63 148  " fill-rule="nonzero" fill="#797979" stroke="none" />
</svg>