<?xml version="1.0" encoding="utf-8"?>
<svg version="1.1" xmlns:xlink="http://www.w3.org/1999/xlink" width="12px" height="12px" viewBox="157 139  12 12" xmlns="http://www.w3.org/2000/svg">
  <path d="M 163 139  C 166.36 139  169 141.64  169 145  C 169 148.36  166.36 151  163 151  C 159.64 151  157 148.36  157 145  C 157 141.64  159.64 139  163 139  Z " fill-rule="nonzero" fill="#f0f0f0" stroke="none" />
  <path d="M 163 139.5  C 166.08 139.5  168.5 141.92  168.5 145  C 168.5 148.08  166.08 150.5  163 150.5  C 159.92 150.5  157.5 148.08  157.5 145  C 157.5 141.92  159.92 139.5  163 139.5  Z " stroke-width="1" stroke="#797979" fill="none" />
  <path d="M 163 148  C 161.32 148  160 146.68  160 145  C 160 143.32  161.32 142  163 142  C 164.68 142  166 143.32  166 145  C 166 146.68  164.68 148  163 148  " fill-rule="nonzero" fill="#797979" stroke="none" />
</svg>