<?xml version="1.0" encoding="utf-8"?>
<svg version="1.1" xmlns:xlink="http://www.w3.org/1999/xlink" width="285px" height="25px" viewBox="57 404  285 25" xmlns="http://www.w3.org/2000/svg">
  <path d="M 58 407  A 2 2 0 0 1 60 405 L 339 405  A 2 2 0 0 1 341 407 L 341 426  A 2 2 0 0 1 339 428 L 60 428  A 2 2 0 0 1 58 426 L 58 407  Z " fill-rule="nonzero" fill="#ffffff" stroke="none" />
  <path d="M 57.5 407  A 2.5 2.5 0 0 1 60 404.5 L 339 404.5  A 2.5 2.5 0 0 1 341.5 407 L 341.5 426  A 2.5 2.5 0 0 1 339 428.5 L 60 428.5  A 2.5 2.5 0 0 1 57.5 426 L 57.5 407  Z " stroke-width="1" stroke="#797979" fill="none" stroke-opacity="0.250980392156863" />
</svg>