<?xml version="1.0" encoding="utf-8"?>
<svg version="1.1" xmlns:xlink="http://www.w3.org/1999/xlink" width="12px" height="12px" viewBox="57 198  12 12" xmlns="http://www.w3.org/2000/svg">
  <path d="M 63 198  C 66.36 198  69 200.64  69 204  C 69 207.36  66.36 210  63 210  C 59.64 210  57 207.36  57 204  C 57 200.64  59.64 198  63 198  Z " fill-rule="nonzero" fill="#f0f0f0" stroke="none" />
  <path d="M 63 198.5  C 66.08 198.5  68.5 200.92  68.5 204  C 68.5 207.08  66.08 209.5  63 209.5  C 59.92 209.5  57.5 207.08  57.5 204  C 57.5 200.92  59.92 198.5  63 198.5  Z " stroke-width="1" stroke="#797979" fill="none" />
  <path d="M 63 207  C 61.32 207  60 205.68  60 204  C 60 202.32  61.32 201  63 201  C 64.68 201  66 202.32  66 204  C 66 205.68  64.68 207  63 207  " fill-rule="nonzero" fill="#797979" stroke="none" />
</svg>