<?xml version="1.0" encoding="utf-8"?>
<svg version="1.1" xmlns:xlink="http://www.w3.org/1999/xlink" width="12px" height="12px" viewBox="157 198  12 12" xmlns="http://www.w3.org/2000/svg">
  <path d="M 163 198  C 166.36 198  169 200.64  169 204  C 169 207.36  166.36 210  163 210  C 159.64 210  157 207.36  157 204  C 157 200.64  159.64 198  163 198  Z " fill-rule="nonzero" fill="#ffffff" stroke="none" />
  <path d="M 163 198.5  C 166.08 198.5  168.5 200.92  168.5 204  C 168.5 207.08  166.08 209.5  163 209.5  C 159.92 209.5  157.5 207.08  157.5 204  C 157.5 200.92  159.92 198.5  163 198.5  Z " stroke-width="1" stroke="#797979" fill="none" />
  <path d="M 163 207  C 161.32 207  160 205.68  160 204  C 160 202.32  161.32 201  163 201  C 164.68 201  166 202.32  166 204  C 166 205.68  164.68 207  163 207  " fill-rule="nonzero" fill="#797979" stroke="none" />
</svg>