<?xml version="1.0" encoding="utf-8"?>
<svg version="1.1" xmlns:xlink="http://www.w3.org/1999/xlink" width="360px" height="25px" viewBox="0 24  360 25" xmlns="http://www.w3.org/2000/svg">
  <path d="M 1 26  A 1 1 0 0 1 2 25 L 358 25  A 1 1 0 0 1 359 26 L 359 47  A 1 1 0 0 1 358 48 L 2 48  A 1 1 0 0 1 1 47 L 1 26  Z " fill-rule="nonzero" fill="#f0f0f0" stroke="none" />
  <path d="M 0.5 26  A 1.5 1.5 0 0 1 2 24.5 L 358 24.5  A 1.5 1.5 0 0 1 359.5 26 L 359.5 47  A 1.5 1.5 0 0 1 358 48.5 L 2 48.5  A 1.5 1.5 0 0 1 0.5 47 L 0.5 26  Z " stroke-width="1" stroke="#797979" fill="none" stroke-opacity="0.247058823529412" />
</svg>