<?xml version="1.0" encoding="utf-8"?>
<svg version="1.1" xmlns:xlink="http://www.w3.org/1999/xlink" width="12px" height="12px" viewBox="0 263  12 12" xmlns="http://www.w3.org/2000/svg">
  <path d="M 6 263  C 9.36 263  12 265.64  12 269  C 12 272.36  9.36 275  6 275  C 2.64 275  0 272.36  0 269  C 0 265.64  2.64 263  6 263  Z " fill-rule="nonzero" fill="#f0f0f0" stroke="none" />
  <path d="M 6 263.5  C 9.08 263.5  11.5 265.92  11.5 269  C 11.5 272.08  9.08 274.5  6 274.5  C 2.92 274.5  0.5 272.08  0.5 269  C 0.5 265.92  2.92 263.5  6 263.5  Z " stroke-width="1" stroke="#797979" fill="none" />
  <path d="M 6 272  C 4.32 272  3 270.68  3 269  C 3 267.32  4.32 266  6 266  C 7.68 266  9 267.32  9 269  C 9 270.68  7.68 272  6 272  " fill-rule="nonzero" fill="#797979" stroke="none" />
</svg>