<?xml version="1.0" encoding="utf-8"?>
<svg version="1.1" xmlns:xlink="http://www.w3.org/1999/xlink" width="12px" height="12px" viewBox="100 318  12 12" xmlns="http://www.w3.org/2000/svg">
  <path d="M 106 318  C 109.36 318  112 320.64  112 324  C 112 327.36  109.36 330  106 330  C 102.64 330  100 327.36  100 324  C 100 320.64  102.64 318  106 318  Z " fill-rule="nonzero" fill="#f0f0f0" stroke="none" />
  <path d="M 106 318.5  C 109.08 318.5  111.5 320.92  111.5 324  C 111.5 327.08  109.08 329.5  106 329.5  C 102.92 329.5  100.5 327.08  100.5 324  C 100.5 320.92  102.92 318.5  106 318.5  Z " stroke-width="1" stroke="#797979" fill="none" />
  <path d="M 106 327  C 104.32 327  103 325.68  103 324  C 103 322.32  104.32 321  106 321  C 107.68 321  109 322.32  109 324  C 109 325.68  107.68 327  106 327  " fill-rule="nonzero" fill="#797979" stroke="none" />
</svg>