<?xml version="1.0" encoding="utf-8"?>
<svg version="1.1" xmlns:xlink="http://www.w3.org/1999/xlink" width="12px" height="12px" viewBox="0 373  12 12" xmlns="http://www.w3.org/2000/svg">
  <path d="M 6 373  C 9.36 373  12 375.64  12 379  C 12 382.36  9.36 385  6 385  C 2.64 385  0 382.36  0 379  C 0 375.64  2.64 373  6 373  Z " fill-rule="nonzero" fill="#ffffff" stroke="none" />
  <path d="M 6 373.5  C 9.08 373.5  11.5 375.92  11.5 379  C 11.5 382.08  9.08 384.5  6 384.5  C 2.92 384.5  0.5 382.08  0.5 379  C 0.5 375.92  2.92 373.5  6 373.5  Z " stroke-width="1" stroke="#797979" fill="none" />
  <path d="M 6 382  C 4.32 382  3 380.68  3 379  C 3 377.32  4.32 376  6 376  C 7.68 376  9 377.32  9 379  C 9 380.68  7.68 382  6 382  " fill-rule="nonzero" fill="#797979" stroke="none" />
</svg>