<?xml version="1.0" encoding="utf-8"?>
<svg version="1.1" xmlns:xlink="http://www.w3.org/1999/xlink" width="12px" height="12px" viewBox="0 207  12 12" xmlns="http://www.w3.org/2000/svg">
  <path d="M 6 207  C 9.36 207  12 209.64  12 213  C 12 216.36  9.36 219  6 219  C 2.64 219  0 216.36  0 213  C 0 209.64  2.64 207  6 207  Z " fill-rule="nonzero" fill="#f0f0f0" stroke="none" />
  <path d="M 6 207.5  C 9.08 207.5  11.5 209.92  11.5 213  C 11.5 216.08  9.08 218.5  6 218.5  C 2.92 218.5  0.5 216.08  0.5 213  C 0.5 209.92  2.92 207.5  6 207.5  Z " stroke-width="1" stroke="#797979" fill="none" />
  <path d="M 6 216  C 4.32 216  3 214.68  3 213  C 3 211.32  4.32 210  6 210  C 7.68 210  9 211.32  9 213  C 9 214.68  7.68 216  6 216  " fill-rule="nonzero" fill="#797979" stroke="none" />
</svg>