<?xml version="1.0" encoding="utf-8"?>
<svg version="1.1" xmlns:xlink="http://www.w3.org/1999/xlink" width="12px" height="12px" viewBox="100 207  12 12" xmlns="http://www.w3.org/2000/svg">
  <path d="M 106 207  C 109.36 207  112 209.64  112 213  C 112 216.36  109.36 219  106 219  C 102.64 219  100 216.36  100 213  C 100 209.64  102.64 207  106 207  Z " fill-rule="nonzero" fill="#f0f0f0" stroke="none" />
  <path d="M 106 207.5  C 109.08 207.5  111.5 209.92  111.5 213  C 111.5 216.08  109.08 218.5  106 218.5  C 102.92 218.5  100.5 216.08  100.5 213  C 100.5 209.92  102.92 207.5  106 207.5  Z " stroke-width="1" stroke="#797979" fill="none" />
  <path d="M 106 216  C 104.32 216  103 214.68  103 213  C 103 211.32  104.32 210  106 210  C 107.68 210  109 211.32  109 213  C 109 214.68  107.68 216  106 216  " fill-rule="nonzero" fill="#797979" stroke="none" />
</svg>