<?xml version="1.0" encoding="utf-8"?>
<svg version="1.1" xmlns:xlink="http://www.w3.org/1999/xlink" width="12px" height="12px" viewBox="57 247  12 12" xmlns="http://www.w3.org/2000/svg">
  <path d="M 63 247  C 66.36 247  69 249.64  69 253  C 69 256.36  66.36 259  63 259  C 59.64 259  57 256.36  57 253  C 57 249.64  59.64 247  63 247  Z " fill-rule="nonzero" fill="#f0f0f0" stroke="none" />
  <path d="M 63 247.5  C 66.08 247.5  68.5 249.92  68.5 253  C 68.5 256.08  66.08 258.5  63 258.5  C 59.92 258.5  57.5 256.08  57.5 253  C 57.5 249.92  59.92 247.5  63 247.5  Z " stroke-width="1" stroke="#797979" fill="none" />
  <path d="M 63 256  C 61.32 256  60 254.68  60 253  C 60 251.32  61.32 250  63 250  C 64.68 250  66 251.32  66 253  C 66 254.68  64.68 256  63 256  " fill-rule="nonzero" fill="#797979" stroke="none" />
</svg>