<?xml version="1.0" encoding="utf-8"?>
<svg version="1.1" xmlns:xlink="http://www.w3.org/1999/xlink" width="20px" height="17px" xmlns="http://www.w3.org/2000/svg">
  <g transform="matrix(1 0 0 1 -56 -230 )">
    <path d="M 18.125 15.1164772727273  C 18.349358974359 14.8910984848485  18.4615384615385 14.6174242424242  18.4615384615385 14.2954545454545  L 18.4615384615385 5.79545454545455  C 18.4615384615385 5.47348484848485  18.349358974359 5.1998106060606  18.125 4.97443181818182  C 17.900641025641 4.74905303030303  17.6282051282051 4.63636363636364  17.3076923076923 4.63636363636364  L 8.84615384615385 4.63636363636364  C 8.52564102564103 4.63636363636364  8.25320512820513 4.52367424242424  8.02884615384615 4.29829545454545  C 7.80448717948718 4.07291666666667  7.69230769230769 3.79924242424242  7.69230769230769 3.47727272727273  L 7.69230769230769 2.70454545454545  C 7.69230769230769 2.38257575757576  7.58012820512821 2.10890151515151  7.35576923076923 1.88352272727273  C 7.13141025641026 1.65814393939394  6.85897435897436 1.54545454545455  6.53846153846154 1.54545454545455  L 2.69230769230769 1.54545454545455  C 2.37179487179487 1.54545454545455  2.09935897435897 1.65814393939394  1.875 1.88352272727273  C 1.65064102564103 2.10890151515151  1.53846153846154 2.38257575757576  1.53846153846154 2.70454545454545  L 1.53846153846154 14.2954545454545  C 1.53846153846154 14.6174242424242  1.65064102564103 14.8910984848485  1.875 15.1164772727273  C 2.09935897435897 15.3418560606061  2.37179487179487 15.4545454545455  2.69230769230769 15.4545454545455  L 17.3076923076923 15.4545454545455  C 17.6282051282051 15.4545454545455  17.900641025641 15.3418560606061  18.125 15.1164772727273  Z M 19.2067307692308 3.88778409090909  C 19.7355769230769 4.41903409090909  20 5.05492424242424  20 5.79545454545455  L 20 14.2954545454545  C 20 15.0359848484848  19.7355769230769 15.671875  19.2067307692308 16.203125  C 18.6778846153846 16.734375  18.0448717948718 17  17.3076923076923 17  L 2.69230769230769 17  C 1.95512820512821 17  1.32211538461539 16.734375  0.793269230769231 16.203125  C 0.264423076923077 15.671875  0 15.0359848484848  0 14.2954545454545  L 0 2.70454545454545  C 0 1.96401515151515  0.264423076923077 1.328125  0.793269230769231 0.796875  C 1.32211538461539 0.265625  1.95512820512821 0  2.69230769230769 0  L 6.53846153846154 0  C 7.27564102564103 0  7.90865384615385 0.265625  8.4375 0.796875  C 8.96634615384615 1.328125  9.23076923076923 1.96401515151515  9.23076923076923 2.70454545454545  L 9.23076923076923 3.09090909090909  L 17.3076923076923 3.09090909090909  C 18.0448717948718 3.09090909090909  18.6778846153846 3.35653409090909  19.2067307692308 3.88778409090909  Z " fill-rule="nonzero" fill="#ffffff" stroke="none" transform="matrix(1 0 0 1 56 230 )" />
  </g>
</svg>