<?xml version="1.0" encoding="utf-8"?>
<svg version="1.1" xmlns:xlink="http://www.w3.org/1999/xlink" width="20px" height="16px" xmlns="http://www.w3.org/2000/svg">
  <g transform="matrix(1 0 0 1 -56 -38 )">
    <path d="M 19.1947115384615 5.30681818181818  C 19.7315705128205 6.36742424242424  20 7.46969696969697  20 8.61363636363636  C 20 9.87121212121212  19.7596153846154 11.0606060606061  19.2788461538462 12.1818181818182  L 19.0384615384615 12.7386363636364  L 16.8149038461538 13.1136363636364  C 16.6386217948718 13.7424242424242  16.2760416666667 14.2594696969697  15.7271634615385 14.6647727272727  C 15.1782852564103 15.0700757575758  14.5512820512821 15.2727272727273  13.8461538461538 15.2727272727273  L 13.8461538461538 15.6363636363636  C 13.8461538461538 15.7424242424242  13.8100961538462 15.8295454545455  13.7379807692308 15.8977272727273  C 13.6658653846154 15.9659090909091  13.573717948718 16  13.4615384615385 16  L 12.6923076923077 16  C 12.5801282051282 16  12.4879807692308 15.9659090909091  12.4158653846154 15.8977272727273  C 12.34375 15.8295454545455  12.3076923076923 15.7424242424242  12.3076923076923 15.6363636363636  L 12.3076923076923 9.09090909090909  C 12.3076923076923 8.98484848484848  12.34375 8.89772727272727  12.4158653846154 8.82954545454545  C 12.4879807692308 8.76136363636364  12.5801282051282 8.72727272727273  12.6923076923077 8.72727272727273  L 13.4615384615385 8.72727272727273  C 13.573717948718 8.72727272727273  13.6658653846154 8.76136363636364  13.7379807692308 8.82954545454545  C 13.8100961538462 8.89772727272727  13.8461538461538 8.98484848484848  13.8461538461538 9.09090909090909  L 13.8461538461538 9.45454545454545  C 14.4150641025641 9.45454545454545  14.9358974358974 9.58901515151515  15.4086538461538 9.85795454545455  C 15.8814102564103 10.1268939393939  16.2540064102564 10.4886363636364  16.5264423076923 10.9431818181818  L 17.34375 10.8068181818182  C 17.5761217948718 10.0871212121212  17.6923076923077 9.35606060606061  17.6923076923077 8.61363636363636  C 17.6923076923077 7.49242424242424  17.3397435897436 6.43560606060606  16.6346153846154 5.44318181818182  C 15.9294871794872 4.45075757575758  14.9819711538462 3.65909090909091  13.7920673076923 3.06818181818182  C 12.6021634615385 2.47727272727273  11.338141025641 2.18181818181818  10 2.18181818181818  C 8.66185897435898 2.18181818181818  7.39783653846154 2.47727272727273  6.20793269230769 3.06818181818182  C 5.01802884615385 3.65909090909091  4.07051282051282 4.45075757575758  3.36538461538462 5.44318181818182  C 2.66025641025641 6.43560606060606  2.30769230769231 7.49242424242424  2.30769230769231 8.61363636363636  C 2.30769230769231 9.35606060606061  2.42387820512821 10.0871212121212  2.65625 10.8068181818182  L 3.47355769230769 10.9431818181818  C 3.74599358974359 10.4886363636364  4.11858974358974 10.1268939393939  4.59134615384615 9.85795454545455  C 5.06410256410256 9.58901515151515  5.5849358974359 9.45454545454545  6.15384615384615 9.45454545454545  L 6.15384615384615 9.09090909090909  C 6.15384615384615 8.98484848484848  6.18990384615385 8.89772727272727  6.26201923076923 8.82954545454545  C 6.33413461538462 8.76136363636364  6.42628205128205 8.72727272727273  6.53846153846154 8.72727272727273  L 7.30769230769231 8.72727272727273  C 7.4198717948718 8.72727272727273  7.51201923076923 8.76136363636364  7.58413461538462 8.82954545454545  C 7.65625 8.89772727272727  7.69230769230769 8.98484848484848  7.69230769230769 9.09090909090909  L 7.69230769230769 15.6363636363636  C 7.69230769230769 15.7424242424242  7.65625 15.8295454545455  7.58413461538462 15.8977272727273  C 7.51201923076923 15.9659090909091  7.4198717948718 16  7.30769230769231 16  L 6.53846153846154 16  C 6.42628205128205 16  6.33413461538462 15.9659090909091  6.26201923076923 15.8977272727273  C 6.18990384615385 15.8295454545455  6.15384615384615 15.7424242424242  6.15384615384615 15.6363636363636  L 6.15384615384615 15.2727272727273  C 5.44871794871795 15.2727272727273  4.82171474358974 15.0700757575758  4.27283653846154 14.6647727272727  C 3.72395833333333 14.2594696969697  3.36137820512821 13.7424242424242  3.18509615384615 13.1136363636364  L 0.961538461538462 12.7386363636364  L 0.721153846153846 12.1818181818182  C 0.240384615384615 11.0606060606061  0 9.87121212121212  0 8.61363636363636  C 0 7.46969696969697  0.268429487179487 6.36742424242424  0.805288461538462 5.30681818181818  C 1.34214743589744 4.24621212121212  2.05929487179487 3.32765151515151  2.95673076923077 2.55113636363636  C 3.85416666666667 1.77462121212121  4.9198717948718 1.15530303030303  6.15384615384615 0.693181818181818  C 7.38782051282051 0.231060606060606  8.6698717948718 0  10 0  C 11.3301282051282 0  12.6121794871795 0.231060606060606  13.8461538461538 0.693181818181818  C 15.0801282051282 1.15530303030303  16.1458333333333 1.77462121212121  17.0432692307692 2.55113636363636  C 17.9407051282051 3.32765151515151  18.6578525641026 4.24621212121212  19.1947115384615 5.30681818181818  Z " fill-rule="nonzero" fill="#333333" stroke="none" transform="matrix(1 0 0 1 56 38 )" />
  </g>
</svg>