<?xml version="1.0" encoding="utf-8"?>
<svg version="1.1" xmlns:xlink="http://www.w3.org/1999/xlink" width="19px" height="22px" xmlns="http://www.w3.org/2000/svg">
  <g transform="matrix(1 0 0 1 -1503 -15 )">
    <path d="M 14.2994791666667 0.834821428571429  L 18.1588541666667 4.66517857142857  C 18.3897569444444 4.89434523809524  18.5876736111111 5.20535714285714  18.7526041666667 5.59821428571429  C 18.9175347222222 5.99107142857143  19 6.35119047619048  19 6.67857142857143  L 19 20.8214285714286  C 19 21.1488095238095  18.8845486111111 21.4270833333333  18.6536458333333 21.65625  C 18.4227430555556 21.8854166666667  18.1423611111111 22  17.8125 22  L 1.1875 22  C 0.857638888888889 22  0.577256944444445 21.8854166666667  0.346354166666667 21.65625  C 0.115451388888889 21.4270833333333  0 21.1488095238095  0 20.8214285714286  L 0 1.17857142857143  C 0 0.851190476190476  0.115451388888889 0.572916666666666  0.346354166666667 0.34375  C 0.577256944444445 0.114583333333334  0.857638888888889 0  1.1875 0  L 12.2708333333333 0  C 12.6006944444444 0  12.9635416666667 0.081845238095239  13.359375 0.245535714285715  C 13.7552083333333 0.40922619047619  14.0685763888889 0.605654761904761  14.2994791666667 0.834821428571429  Z M 13.173828125 1.93973214285714  C 13.0748697916667 1.84151785714286  12.9058159722222 1.75148809523809  12.6666666666667 1.66964285714286  L 12.6666666666667 6.28571428571429  L 17.3177083333333 6.28571428571429  C 17.2352430555556 6.04836309523809  17.14453125 5.88058035714286  17.0455729166667 5.78236607142857  L 13.173828125 1.93973214285714  Z M 1.58333333333333 20  L 17.4166666666667 20  L 17.4166666666667 7.85714285714286  L 12.2708333333333 7.85714285714286  C 11.9409722222222 7.85714285714286  11.6605902777778 7.74255952380952  11.4296875 7.51339285714286  C 11.1987847222222 7.28422619047619  11.0833333333333 7.00595238095238  11.0833333333333 6.67857142857143  L 11.0833333333333 1.57142857142857  L 1.58333333333333 1.57142857142857  L 1.58333333333333 20  Z M 4.75 10.6071428571429  L 4.75 9.82142857142857  C 4.75 9.70684523809524  4.787109375 9.61272321428572  4.861328125 9.5390625  C 4.935546875 9.46540178571428  5.03038194444444 9.42857142857143  5.14583333333333 9.42857142857143  L 13.8541666666667 9.42857142857143  C 13.9696180555556 9.42857142857143  14.064453125 9.46540178571428  14.138671875 9.5390625  C 14.212890625 9.61272321428572  14.25 9.70684523809524  14.25 9.82142857142857  L 14.25 10.6071428571429  C 14.25 10.7217261904762  14.212890625 10.8158482142857  14.138671875 10.8895089285714  C 14.064453125 10.9631696428571  13.9696180555556 11  13.8541666666667 11  L 5.14583333333333 11  C 5.03038194444444 11  4.935546875 10.9631696428571  4.861328125 10.8895089285714  C 4.787109375 10.8158482142857  4.75 10.7217261904762  4.75 10.6071428571429  Z M 5.14583333333333 12.5714285714286  L 13.8541666666667 12.5714285714286  C 13.9696180555556 12.5714285714286  14.064453125 12.6082589285714  14.138671875 12.6819196428571  C 14.212890625 12.7555803571429  14.25 12.8497023809524  14.25 12.9642857142857  L 14.25 13.75  C 14.25 13.8645833333333  14.212890625 13.9587053571429  14.138671875 14.0323660714286  C 14.064453125 14.1060267857143  13.9696180555556 14.1428571428571  13.8541666666667 14.1428571428571  L 5.14583333333333 14.1428571428571  C 5.03038194444444 14.1428571428571  4.935546875 14.1060267857143  4.861328125 14.0323660714286  C 4.787109375 13.9587053571429  4.75 13.8645833333333  4.75 13.75  L 4.75 12.9642857142857  C 4.75 12.8497023809524  4.787109375 12.7555803571429  4.861328125 12.6819196428571  C 4.935546875 12.6082589285714  5.03038194444444 12.5714285714286  5.14583333333333 12.5714285714286  Z M 5.14583333333333 15.7142857142857  L 13.8541666666667 15.7142857142857  C 13.9696180555556 15.7142857142857  14.064453125 15.7511160714286  14.138671875 15.8247767857143  C 14.212890625 15.8984375  14.25 15.9925595238095  14.25 16.1071428571429  L 14.25 16.8928571428571  C 14.25 17.0074404761905  14.212890625 17.1015625  14.138671875 17.1752232142857  C 14.064453125 17.2488839285714  13.9696180555556 17.2857142857143  13.8541666666667 17.2857142857143  L 5.14583333333333 17.2857142857143  C 5.03038194444444 17.2857142857143  4.935546875 17.2488839285714  4.861328125 17.1752232142857  C 4.787109375 17.1015625  4.75 17.0074404761905  4.75 16.8928571428571  L 4.75 16.1071428571429  C 4.75 15.9925595238095  4.787109375 15.8984375  4.861328125 15.8247767857143  C 4.935546875 15.7511160714286  5.03038194444444 15.7142857142857  5.14583333333333 15.7142857142857  Z " fill-rule="nonzero" fill="#333333" stroke="none" transform="matrix(1 0 0 1 1503 15 )" />
  </g>
</svg>